<svg xmlns="http://www.w3.org/2000/svg" xmlns:xlink="http://www.w3.org/1999/xlink" xmlns:lucid="lucid" width="1160" height="1560"><g transform="translate(-220 -60)" lucid:page-tab-id="0_0"><path d="M920 566c0-3.3 2.7-6 6-6h388c3.3 0 6 2.7 6 6v548c0 3.3-2.7 6-6 6H926c-3.3 0-6-2.7-6-6z" stroke="#000" stroke-opacity=".5" fill-opacity="0"/><path d="M240 86c0-3.3 2.7-6 6-6h468c3.3 0 6 2.7 6 6v228c0 3.3-2.7 6-6 6H246c-3.3 0-6-2.7-6-6z" fill="#861f41"/><path d="M240 80h480m0 240H240" stroke="#5e5e5e" stroke-width="3" fill="#861f41"/><use xlink:href="#a" transform="matrix(1,0,0,1,260,80) translate(59.62037037037044 82.66666666666666)"/><use xlink:href="#b" transform="matrix(1,0,0,1,260,80) translate(139.06481481481484 82.66666666666666)"/><use xlink:href="#c" transform="matrix(1,0,0,1,260,80) translate(313.04629629629625 82.66666666666666)"/><use xlink:href="#d" transform="matrix(1,0,0,1,260,80) translate(127.0679012345679 115.55555555555554)"/><use xlink:href="#e" transform="matrix(1,0,0,1,260,80) translate(181.38888888888889 115.55555555555554)"/><use xlink:href="#f" transform="matrix(1,0,0,1,260,80) translate(257.09876543209873 115.55555555555554)"/><use xlink:href="#g" transform="matrix(1,0,0,1,260,80) translate(139.45987654320987 144.88888888888886)"/><use xlink:href="#h" transform="matrix(1,0,0,1,260,80) translate(160.50925925925924 144.88888888888886)"/><use xlink:href="#i" transform="matrix(1,0,0,1,260,80) translate(228.4104938271605 144.88888888888886)"/><use xlink:href="#g" transform="matrix(1,0,0,1,260,80) translate(131.41358024691357 174.22222222222223)"/><use xlink:href="#j" transform="matrix(1,0,0,1,260,80) translate(152.46296296296293 174.22222222222223)"/><use xlink:href="#e" transform="matrix(1,0,0,1,260,80) translate(172.83333333333331 174.22222222222223)"/><use xlink:href="#k" transform="matrix(1,0,0,1,260,80) translate(248.5432098765432 174.22222222222223)"/><path d="M696 400c13.25 0 24 10.75 24 24v192c0 13.25-10.75 24-24 24H264c-13.25 0-24-10.75-24-24V424c0-13.25 10.75-24 24-24z" stroke="#5e5e5e" stroke-width="3" fill="#e87722"/><use xlink:href="#l" transform="matrix(1,0,0,1,260,400) translate(120.18518518518522 77.83333333333334)"/><use xlink:href="#m" transform="matrix(1,0,0,1,260,400) translate(102.59259259259264 117.83333333333333)"/><use xlink:href="#n" transform="matrix(1,0,0,1,260,400) translate(23.90123456790127 150.7222222222222)"/><use xlink:href="#o" transform="matrix(1,0,0,1,260,400) translate(86.37037037037038 150.7222222222222)"/><use xlink:href="#p" transform="matrix(1,0,0,1,260,400) translate(224.68518518518516 150.7222222222222)"/><use xlink:href="#q" transform="matrix(1,0,0,1,260,400) translate(291.22839506172835 150.7222222222222)"/><use xlink:href="#r" transform="matrix(1,0,0,1,260,400) translate(315.6049382716049 150.7222222222222)"/><use xlink:href="#s" transform="matrix(1,0,0,1,260,400) translate(86.40432098765436 180.05555555555554)"/><use xlink:href="#t" transform="matrix(1,0,0,1,260,400) translate(232.7993827160494 180.05555555555554)"/><use xlink:href="#u" transform="matrix(1,0,0,1,260,400) translate(280.33024691358025 180.05555555555554)"/><path d="M240 726c0-3.3 2.7-6 6-6h468c3.3 0 6 2.7 6 6v228c0 3.3-2.7 6-6 6H246c-3.3 0-6-2.7-6-6z" fill="#861f41"/><path d="M240 720h480m0 240H240" stroke="#5e5e5e" stroke-width="3" fill="#861f41"/><use xlink:href="#v" transform="matrix(1,0,0,1,260,720) translate(42.02777777777783 48.00000000000003)"/><use xlink:href="#w" transform="matrix(1,0,0,1,260,720) translate(250.91666666666666 48.00000000000003)"/><use xlink:href="#x" transform="matrix(1,0,0,1,260,720) translate(181.70370370370372 88.00000000000001)"/><use xlink:href="#g" transform="matrix(1,0,0,1,260,720) translate(61.44135802469134 120.8888888888889)"/><use xlink:href="#y" transform="matrix(1,0,0,1,260,720) translate(82.49074074074072 120.8888888888889)"/><use xlink:href="#z" transform="matrix(1,0,0,1,260,720) translate(130.0216049382716 120.8888888888889)"/><use xlink:href="#A" transform="matrix(1,0,0,1,260,720) translate(199.00925925925924 120.8888888888889)"/><use xlink:href="#B" transform="matrix(1,0,0,1,260,720) translate(284.5648148148148 120.8888888888889)"/><use xlink:href="#C" transform="matrix(1,0,0,1,260,720) translate(46.570987654321044 150.22222222222223)"/><use xlink:href="#D" transform="matrix(1,0,0,1,260,720) translate(67.62037037037042 150.22222222222223)"/><use xlink:href="#E" transform="matrix(1,0,0,1,260,720) translate(101.57098765432103 150.22222222222223)"/><use xlink:href="#F" transform="matrix(1,0,0,1,260,720) translate(208.65123456790124 150.22222222222223)"/><use xlink:href="#G" transform="matrix(1,0,0,1,260,720) translate(313.01543209876536 150.22222222222223)"/><use xlink:href="#H" transform="matrix(1,0,0,1,260,720) translate(14.385802469135854 179.55555555555554)"/><use xlink:href="#I" transform="matrix(1,0,0,1,260,720) translate(124.18209876543212 179.55555555555554)"/><use xlink:href="#J" transform="matrix(1,0,0,1,260,720) translate(259.91666666666663 179.55555555555554)"/><use xlink:href="#K" transform="matrix(1,0,0,1,260,720) translate(327.61419753086415 179.55555555555554)"/><use xlink:href="#t" transform="matrix(1,0,0,1,260,720) translate(69.28395061728398 208.88888888888886)"/><use xlink:href="#L" transform="matrix(1,0,0,1,260,720) translate(116.81481481481484 208.88888888888886)"/><use xlink:href="#M" transform="matrix(1,0,0,1,260,720) translate(215.8148148148148 208.88888888888886)"/><path d="M696 1040c13.25 0 24 10.75 24 24v192c0 13.25-10.75 24-24 24H264c-13.25 0-24-10.75-24-24v-192c0-13.25 10.75-24 24-24z" stroke="#5e5e5e" stroke-width="3" fill="#e87722"/><g><use xlink:href="#N" transform="matrix(1,0,0,1,260,1040) translate(26.89814814814821 97.83333333333334)"/><use xlink:href="#O" transform="matrix(1,0,0,1,260,1040) translate(132.36111111111114 97.83333333333334)"/><use xlink:href="#P" transform="matrix(1,0,0,1,260,1040) translate(243.19444444444443 97.83333333333334)"/><use xlink:href="#Q" transform="matrix(1,0,0,1,260,1040) translate(18.63888888888897 130.72222222222223)"/><use xlink:href="#R" transform="matrix(1,0,0,1,260,1040) translate(40.36728395061736 130.72222222222223)"/><use xlink:href="#S" transform="matrix(1,0,0,1,260,1040) translate(147.44753086419757 130.72222222222223)"/><use xlink:href="#q" transform="matrix(1,0,0,1,260,1040) translate(220.5771604938272 130.72222222222223)"/><use xlink:href="#T" transform="matrix(1,0,0,1,260,1040) translate(244.95370370370372 130.72222222222223)"/><use xlink:href="#U" transform="matrix(1,0,0,1,260,1040) translate(333.1574074074074 130.72222222222223)"/><use xlink:href="#V" transform="matrix(1,0,0,1,260,1040) translate(368.3981481481481 130.72222222222223)"/><use xlink:href="#W" transform="matrix(1,0,0,1,260,1040) translate(189.5462962962963 160.05555555555554)"/></g><path d="M240 1366c0-3.3 2.7-6 6-6h468c3.3 0 6 2.7 6 6v228c0 3.3-2.7 6-6 6H246c-3.3 0-6-2.7-6-6z" fill="#861f41"/><path d="M240 1360h480m0 240H240" stroke="#5e5e5e" stroke-width="3" fill="#861f41"/><g><use xlink:href="#N" transform="matrix(1,0,0,1,260,1360) translate(73.5555555555556 82.66666666666666)"/><use xlink:href="#O" transform="matrix(1,0,0,1,260,1360) translate(179.01851851851853 82.66666666666666)"/><use xlink:href="#x" transform="matrix(1,0,0,1,260,1360) translate(289.85185185185185 82.66666666666666)"/><use xlink:href="#g" transform="matrix(1,0,0,1,260,1360) translate(34.95987654320987 115.55555555555554)"/><use xlink:href="#X" transform="matrix(1,0,0,1,260,1360) translate(56.00925925925925 115.55555555555554)"/><use xlink:href="#Y" transform="matrix(1,0,0,1,260,1360) translate(123.9104938271605 115.55555555555554)"/><use xlink:href="#Z" transform="matrix(1,0,0,1,260,1360) translate(178.23148148148147 115.55555555555554)"/><use xlink:href="#aa" transform="matrix(1,0,0,1,260,1360) translate(250.13888888888889 115.55555555555554)"/><use xlink:href="#ab" transform="matrix(1,0,0,1,260,1360) translate(285.3796296296296 115.55555555555554)"/><use xlink:href="#ac" transform="matrix(1,0,0,1,260,1360) translate(345.13271604938274 115.55555555555554)"/><use xlink:href="#ad" transform="matrix(1,0,0,1,260,1360) translate(2.7067901234568126 144.88888888888886)"/><use xlink:href="#ae" transform="matrix(1,0,0,1,260,1360) translate(80.04629629629632 144.88888888888886)"/><use xlink:href="#af" transform="matrix(1,0,0,1,260,1360) translate(211.57098765432102 144.88888888888886)"/><use xlink:href="#ag" transform="matrix(1,0,0,1,260,1360) translate(259.10185185185185 144.88888888888886)"/><use xlink:href="#ah" transform="matrix(1,0,0,1,260,1360) translate(366.3179012345679 144.88888888888886)"/><use xlink:href="#ai" transform="matrix(1,0,0,1,260,1360) translate(130.97222222222223 174.22222222222223)"/><use xlink:href="#aj" transform="matrix(1,0,0,1,260,1360) translate(173.0030864197531 174.22222222222223)"/><use xlink:href="#ak" transform="matrix(1,0,0,1,260,1360) translate(219.10802469135803 174.22222222222223)"/></g><path d="M880 86c0-3.3 2.7-6 6-6h468c3.3 0 6 2.7 6 6v228c0 3.3-2.7 6-6 6H886c-3.3 0-6-2.7-6-6z" fill="#861f41"/><path d="M880 80h480m0 240H880" stroke="#5e5e5e" stroke-width="3" fill="#861f41"/><g><use xlink:href="#al" transform="matrix(1,0,0,1,900,80) translate(43.04629629629636 48)"/><use xlink:href="#am" transform="matrix(1,0,0,1,900,80) translate(222.39814814814815 48)"/><use xlink:href="#an" transform="matrix(1,0,0,1,900,80) translate(329.52777777777777 48)"/><use xlink:href="#ao" transform="matrix(1,0,0,1,900,80) translate(144.8055555555556 87.99999999999999)"/><use xlink:href="#ap" transform="matrix(1,0,0,1,900,80) translate(40.66358024691357 120.88888888888887)"/><use xlink:href="#aq" transform="matrix(1,0,0,1,900,80) translate(134.3672839506173 120.88888888888887)"/><use xlink:href="#ar" transform="matrix(1,0,0,1,900,80) translate(247.08333333333337 120.88888888888887)"/><use xlink:href="#as" transform="matrix(1,0,0,1,900,80) translate(301.33641975308643 120.88888888888887)"/><use xlink:href="#at" transform="matrix(1,0,0,1,900,80) translate(164.27777777777777 150.22222222222223)"/><use xlink:href="#au" transform="matrix(1,0,0,1,900,80) translate(7.629629629629619 179.55555555555554)"/><use xlink:href="#av" transform="matrix(1,0,0,1,900,80) translate(91.69135802469134 179.55555555555554)"/><use xlink:href="#aw" transform="matrix(1,0,0,1,900,80) translate(170.25308641975306 179.55555555555554)"/><use xlink:href="#ax" transform="matrix(1,0,0,1,900,80) translate(301.77777777777777 179.55555555555554)"/><use xlink:href="#ay" transform="matrix(1,0,0,1,900,80) translate(328.9382716049383 179.55555555555554)"/><use xlink:href="#af" transform="matrix(1,0,0,1,900,80) translate(119.46296296296296 208.8888888888889)"/><use xlink:href="#az" transform="matrix(1,0,0,1,900,80) translate(166.99382716049382 208.8888888888889)"/><use xlink:href="#aA" transform="matrix(1,0,0,1,900,80) translate(221.179012345679 208.8888888888889)"/></g><path d="M480 323.5v52.26" stroke="#5e5e5e" stroke-width="4" fill="none"/><path d="M482 323.55h-4v-2.05h4z" fill="#5e5e5e"/><path d="M480 392.03l-4.64-14.27h9.28z" stroke="#5e5e5e" stroke-width="4" fill="#5e5e5e"/><path d="M1120 323.5V354c0 3.3-2.7 6-6 6H486c-3.3 0-6 2.7-6 6v9.76" stroke="#5e5e5e" stroke-width="4" fill="none"/><path d="M1122 323.55h-4v-2.05h4z" fill="#5e5e5e"/><path d="M480 392.03l-4.64-14.27h9.28z" stroke="#5e5e5e" stroke-width="4" fill="#5e5e5e"/><path d="M480 643.5v52.26" stroke="#5e5e5e" stroke-width="4" fill="none"/><path d="M482 643.55h-4v-2.05h4z" fill="#5e5e5e"/><path d="M480 712.03l-4.64-14.27h9.28z" stroke="#5e5e5e" stroke-width="4" fill="#5e5e5e"/><path d="M480 963.5v52.26" stroke="#5e5e5e" stroke-width="4" fill="none"/><path d="M482 963.55h-4v-2.05h4z" fill="#5e5e5e"/><path d="M480 1032.03l-4.64-14.27h9.28z" stroke="#5e5e5e" stroke-width="4" fill="#5e5e5e"/><path d="M480 1283.5v52.26" stroke="#5e5e5e" stroke-width="4" fill="none"/><path d="M482 1283.55h-4v-2.05h4z" fill="#5e5e5e"/><path d="M480 1352.03l-4.64-14.27h9.28z" stroke="#5e5e5e" stroke-width="4" fill="#5e5e5e"/><path d="M880 1366c0-3.3 2.7-6 6-6h444c3.3 0 6 2.7 6 6v216c0 3.3-2.7 6-6 6H886c-3.3 0-6-2.7-6-6z" stroke="#5e5e5e" stroke-width="3" fill="#508590"/><path d="M904 1378c0-3.3 2.7-6 6-6h444c3.3 0 6 2.7 6 6v216c0 3.3-2.7 6-6 6H910c-3.3 0-6-2.7-6-6z" stroke="#5e5e5e" stroke-width="3" fill="#508590"/><g><use xlink:href="#aB" transform="matrix(1,0,0,1,902,1360) translate(109.07407407407412 82.66666666666666)"/><use xlink:href="#aC" transform="matrix(1,0,0,1,902,1360) translate(192.31481481481484 82.66666666666666)"/><use xlink:href="#aD" transform="matrix(1,0,0,1,902,1360) translate(38.87345679012344 115.55555555555554)"/><use xlink:href="#aE" transform="matrix(1,0,0,1,902,1360) translate(116.07716049382714 115.55555555555554)"/><use xlink:href="#ax" transform="matrix(1,0,0,1,902,1360) translate(170.33024691358023 115.55555555555554)"/><use xlink:href="#aF" transform="matrix(1,0,0,1,902,1360) translate(197.4907407407407 115.55555555555554)"/><use xlink:href="#aG" transform="matrix(1,0,0,1,902,1360) translate(283.0462962962963 115.55555555555554)"/><use xlink:href="#aH" transform="matrix(1,0,0,1,902,1360) translate(360.3858024691358 115.55555555555554)"/><use xlink:href="#aI" transform="matrix(1,0,0,1,902,1360) translate(173.25 144.88888888888886)"/><use xlink:href="#aJ" transform="matrix(1,0,0,1,902,1360) translate(14.802469135802426 174.22222222222223)"/><use xlink:href="#aK" transform="matrix(1,0,0,1,902,1360) translate(21.59259259259255 174.22222222222223)"/><use xlink:href="#aL" transform="matrix(1,0,0,1,902,1360) translate(116.04320987654319 174.22222222222223)"/><use xlink:href="#aM" transform="matrix(1,0,0,1,902,1360) translate(185.16666666666663 174.22222222222223)"/><use xlink:href="#Y" transform="matrix(1,0,0,1,902,1360) translate(212.32716049382714 174.22222222222223)"/><use xlink:href="#aN" transform="matrix(1,0,0,1,902,1360) translate(266.64814814814815 174.22222222222223)"/></g><path d="M722 1480h133.76" stroke="#5e5e5e" stroke-width="4" fill="none"/><path d="M722.05 1482H720v-4h2.05z" fill="#5e5e5e"/><path d="M872.03 1480l-14.27 4.64v-9.28z" stroke="#5e5e5e" stroke-width="4" fill="#5e5e5e"/><path d="M998.17 646c0-3.3 2.7-6 6-6h231.66c3.3 0 6 2.7 6 6v68c0 3.3-2.7 6-6 6h-231.66c-3.3 0-6-2.7-6-6z" fill="#861f41"/><path d="M998.17 640h243.66m0 80H998.17" stroke="#5e5e5e" stroke-width="3" fill="#861f41"/><g><use xlink:href="#aO" transform="matrix(1,0,0,1,1018.1725888324873,640.0000000000001) translate(22.462962962962962 46.66666666666667)"/><use xlink:href="#aP" transform="matrix(1,0,0,1,1018.1725888324873,640.0000000000001) translate(102 46.66666666666667)"/></g><path d="M1233.83 800c4.42 0 8 3.58 8 8v64c0 4.42-3.58 8-8 8h-227.66c-4.42 0-8-3.58-8-8v-64c0-4.42 3.58-8 8-8z" stroke="#5e5e5e" stroke-width="3" fill="#e87722"/><g><use xlink:href="#aQ" transform="matrix(1,0,0,1,1018.1725888324873,800.0000000000001) translate(41.8611111111111 46.66666666666667)"/></g><path d="M998.17 966c0-3.3 2.7-6 6-6h219.47c3.32 0 6 2.7 6 6v64c0 3.3-2.68 6-6 6h-219.47c-3.3 0-6-2.7-6-6z" stroke="#5e5e5e" stroke-width="3" fill="#508590"/><path d="M1010.36 970c0-3.3 2.68-6 6-6h219.47c3.3 0 6 2.7 6 6v64c0 3.3-2.7 6-6 6h-219.47c-3.32 0-6-2.7-6-6z" stroke="#5e5e5e" stroke-width="3" fill="#508590"/><g><use xlink:href="#aR" transform="matrix(1,0,0,1,1020.1725888324873,960) translate(37.23148148148147 46.66666666666667)"/></g><path d="M1040 546c0-3.3 2.7-6 6-6h148c3.3 0 6 2.7 6 6v28c0 3.3-2.7 6-6 6h-148c-3.3 0-6-2.7-6-6z" stroke="#000" stroke-opacity="0" stroke-width="3" fill="#e5e5e5"/><g><use xlink:href="#aS" transform="matrix(1,0,0,1,1045,545) translate(19.444444444444443 26.66666666666667)"/></g><defs><path fill="#fff" d="M175 0L67-191c6 58 2 128 3 191H24v-248h59L193-55c-6-58-2-129-3-193h46V0h-61" id="aT"/><path fill="#fff" d="M24-248c120-7 223 5 221 122C244-46 201 0 124 0H24v-248zM76-40c74 7 117-18 117-86 0-67-45-88-117-82v168" id="aU"/><path fill="#fff" d="M169-182c-1-43-94-46-97-3 18 66 151 10 154 114 3 95-165 93-204 36-6-8-10-19-12-30l50-8c3 46 112 56 116 5-17-69-150-10-154-114-4-87 153-88 188-35 5 8 8 18 10 28" id="aV"/><g id="a"><use transform="matrix(0.09259259259259256,0,0,0.09259259259259256,0,0)" xlink:href="#aT"/><use transform="matrix(0.09259259259259256,0,0,0.09259259259259256,23.981481481481474,0)" xlink:href="#aU"/><use transform="matrix(0.09259259259259256,0,0,0.09259259259259256,47.96296296296295,0)" xlink:href="#aV"/></g><path fill="#fff" d="M115-3C79 11 28 4 28-45v-112H4v-33h27l15-45h31v45h36v33H77v99c-1 23 16 31 38 25v30" id="aW"/><path fill="#fff" d="M25-224v-37h50v37H25zM25 0v-190h50V0H25" id="aX"/><path fill="#fff" d="M220-157c-53 9-28 100-34 157h-49v-107c1-27-5-49-29-50C55-147 81-57 75 0H25l-1-190h47c2 12-1 28 3 38 10-53 101-56 108 0 13-22 24-43 59-42 82 1 51 116 57 194h-49v-107c-1-25-5-48-29-50" id="aY"/><path fill="#fff" d="M185-48c-13 30-37 53-82 52C43 2 14-33 14-96s30-98 90-98c62 0 83 45 84 108H66c0 31 8 55 39 56 18 0 30-7 34-22zm-45-69c5-46-57-63-70-21-2 6-4 13-4 21h74" id="aZ"/><path fill="#fff" d="M137-138c1-29-70-34-71-4 15 46 118 7 119 86 1 83-164 76-172 9l43-7c4 19 20 25 44 25 33 8 57-30 24-41C81-84 22-81 20-136c-2-80 154-74 161-7" id="ba"/><path fill="#fff" d="M135-150c-39-12-60 13-60 57V0H25l-1-190h47c2 13-1 29 3 40 6-28 27-53 61-41v41" id="bb"/><g id="b"><use transform="matrix(0.09259259259259256,0,0,0.09259259259259256,0,0)" xlink:href="#aW"/><use transform="matrix(0.09259259259259256,0,0,0.09259259259259256,11.018518518518515,0)" xlink:href="#aX"/><use transform="matrix(0.09259259259259256,0,0,0.09259259259259256,20.27777777777777,0)" xlink:href="#aY"/><use transform="matrix(0.09259259259259256,0,0,0.09259259259259256,49.90740740740739,0)" xlink:href="#aZ"/><use transform="matrix(0.09259259259259256,0,0,0.09259259259259256,68.4259259259259,0)" xlink:href="#ba"/><use transform="matrix(0.09259259259259256,0,0,0.09259259259259256,86.9444444444444,0)" xlink:href="#aZ"/><use transform="matrix(0.09259259259259256,0,0,0.09259259259259256,105.4629629629629,0)" xlink:href="#bb"/><use transform="matrix(0.09259259259259256,0,0,0.09259259259259256,118.42592592592587,0)" xlink:href="#aX"/><use transform="matrix(0.09259259259259256,0,0,0.09259259259259256,127.68518518518512,0)" xlink:href="#aZ"/><use transform="matrix(0.09259259259259256,0,0,0.09259259259259256,146.20370370370364,0)" xlink:href="#ba"/></g><path fill="#fff" d="M88-194c31-1 46 15 58 34l-1-101h50l1 261h-48c-2-10 0-23-3-31C134-8 116 4 84 4 32 4 16-41 15-95c0-56 19-97 73-99zm17 164c33 0 40-30 41-66 1-37-9-64-41-64s-38 30-39 65c0 43 13 65 39 65" id="bc"/><path fill="#fff" d="M133-34C117-15 103 5 69 4 32 3 11-16 11-54c-1-60 55-63 116-61 1-26-3-47-28-47-18 1-26 9-28 27l-52-2c7-38 36-58 82-57s74 22 75 68l1 82c-1 14 12 18 25 15v27c-30 8-71 5-69-32zm-48 3c29 0 43-24 42-57-32 0-66-3-65 30 0 17 8 27 23 27" id="bd"/><g id="c"><use transform="matrix(0.09259259259259256,0,0,0.09259259259259256,0,0)" xlink:href="#bc"/><use transform="matrix(0.09259259259259256,0,0,0.09259259259259256,20.27777777777777,0)" xlink:href="#bd"/><use transform="matrix(0.09259259259259256,0,0,0.09259259259259256,38.79629629629628,0)" xlink:href="#aW"/><use transform="matrix(0.09259259259259256,0,0,0.09259259259259256,49.814814814814795,0)" xlink:href="#bd"/></g><path fill="#fff" d="M126-127c33 6 58 20 58 59 0 88-139 92-164 29-3-8-5-16-6-25l32-3c6 27 21 44 54 44 32 0 52-15 52-46 0-38-36-46-79-43v-28c39 1 72-4 72-42 0-27-17-43-46-43-28 0-47 15-49 41l-32-3c6-42 35-63 81-64 48-1 79 21 79 65 0 36-21 52-52 59" id="be"/><path fill="#fff" d="M155-56V0h-30v-56H8v-25l114-167h33v167h35v25h-35zm-30-156c-27 46-58 90-88 131h88v-131" id="bf"/><path fill="#fff" d="M33 0v-38h34V0H33" id="bg"/><path fill="#fff" d="M54-142c48-35 137-8 131 61C196 18 31 33 14-55l32-4c7 23 22 37 52 37 35-1 51-22 54-58 4-55-73-65-99-34H22l8-134h141v27H59" id="bh"/><g id="d"><use transform="matrix(0.06790123456790123,0,0,0.06790123456790123,0,0)" xlink:href="#be"/><use transform="matrix(0.06790123456790123,0,0,0.06790123456790123,13.580246913580247,0)" xlink:href="#bf"/><use transform="matrix(0.06790123456790123,0,0,0.06790123456790123,27.160493827160494,0)" xlink:href="#bg"/><use transform="matrix(0.06790123456790123,0,0,0.06790123456790123,33.95061728395062,0)" xlink:href="#bh"/></g><path fill="#fff" d="M210-169c-67 3-38 105-44 169h-31v-121c0-29-5-50-35-48C34-165 62-65 56 0H25l-1-190h30c1 10-1 24 2 32 10-44 99-50 107 0 11-21 27-35 58-36 85-2 47 119 55 194h-31v-121c0-29-5-49-35-48" id="bi"/><path fill="#fff" d="M24-231v-30h32v30H24zM24 0v-190h32V0H24" id="bj"/><path fill="#fff" d="M24 0v-261h32V0H24" id="bk"/><path fill="#fff" d="M100-194c62-1 85 37 85 99 1 63-27 99-86 99S16-35 15-95c0-66 28-99 85-99zM99-20c44 1 53-31 53-75 0-43-8-75-51-75s-53 32-53 75 10 74 51 75" id="bl"/><path fill="#fff" d="M117-194c89-4 53 116 60 194h-32v-121c0-31-8-49-39-48C34-167 62-67 57 0H25l-1-190h30c1 10-1 24 2 32 11-22 29-35 61-36" id="bm"/><g id="e"><use transform="matrix(0.06790123456790123,0,0,0.06790123456790123,0,0)" xlink:href="#bi"/><use transform="matrix(0.06790123456790123,0,0,0.06790123456790123,20.30246913580247,0)" xlink:href="#bj"/><use transform="matrix(0.06790123456790123,0,0,0.06790123456790123,25.666666666666664,0)" xlink:href="#bk"/><use transform="matrix(0.06790123456790123,0,0,0.06790123456790123,31.03086419753086,0)" xlink:href="#bk"/><use transform="matrix(0.06790123456790123,0,0,0.06790123456790123,36.395061728395056,0)" xlink:href="#bj"/><use transform="matrix(0.06790123456790123,0,0,0.06790123456790123,41.75925925925925,0)" xlink:href="#bl"/><use transform="matrix(0.06790123456790123,0,0,0.06790123456790123,55.339506172839506,0)" xlink:href="#bm"/></g><path fill="#fff" d="M100-194c63 0 86 42 84 106H49c0 40 14 67 53 68 26 1 43-12 49-29l28 8c-11 28-37 45-77 45C44 4 14-33 15-96c1-61 26-98 85-98zm52 81c6-60-76-77-97-28-3 7-6 17-6 28h103" id="bn"/><path fill="#fff" d="M135-143c-3-34-86-38-87 0 15 53 115 12 119 90S17 21 10-45l28-5c4 36 97 45 98 0-10-56-113-15-118-90-4-57 82-63 122-42 12 7 21 19 24 35" id="bo"/><g id="f"><use transform="matrix(0.06790123456790123,0,0,0.06790123456790123,0,0)" xlink:href="#bi"/><use transform="matrix(0.06790123456790123,0,0,0.06790123456790123,20.30246913580247,0)" xlink:href="#bj"/><use transform="matrix(0.06790123456790123,0,0,0.06790123456790123,25.666666666666664,0)" xlink:href="#bk"/><use transform="matrix(0.06790123456790123,0,0,0.06790123456790123,31.03086419753086,0)" xlink:href="#bn"/><use transform="matrix(0.06790123456790123,0,0,0.06790123456790123,44.61111111111111,0)" xlink:href="#bo"/></g><path fill="#fff" d="M18-27v-27l151-64-151-65v-27l175 74v36" id="bp"/><use transform="matrix(0.06790123456790123,0,0,0.06790123456790123,0,0)" xlink:href="#bp" id="g"/><path fill="#fff" d="M68-38c1 34 0 65-14 84H32c9-13 17-26 17-46H33v-38h35" id="bq"/><path fill="#fff" d="M101-251c68 0 85 55 85 127S166 4 100 4C33 4 14-52 14-124c0-73 17-127 87-127zm-1 229c47 0 54-49 54-102s-4-102-53-102c-51 0-55 48-55 102 0 53 5 102 54 102" id="br"/><g id="h"><use transform="matrix(0.06790123456790123,0,0,0.06790123456790123,0,0)" xlink:href="#be"/><use transform="matrix(0.06790123456790123,0,0,0.06790123456790123,13.580246913580247,0)" xlink:href="#bq"/><use transform="matrix(0.06790123456790123,0,0,0.06790123456790123,20.37037037037037,0)" xlink:href="#bh"/><use transform="matrix(0.06790123456790123,0,0,0.06790123456790123,33.95061728395062,0)" xlink:href="#br"/><use transform="matrix(0.06790123456790123,0,0,0.06790123456790123,47.53086419753087,0)" xlink:href="#br"/></g><path fill="#fff" d="M85-194c31 0 48 13 60 33l-1-100h32l1 261h-30c-2-10 0-23-3-31C134-8 116 4 85 4 32 4 16-35 15-94c0-66 23-100 70-100zm9 24c-40 0-46 34-46 75 0 40 6 74 45 74 42 0 51-32 51-76 0-42-9-74-50-73" id="bs"/><path fill="#fff" d="M114-163C36-179 61-72 57 0H25l-1-190h30c1 12-1 29 2 39 6-27 23-49 58-41v29" id="bt"/><path fill="#fff" d="M108 0H70L1-190h34L89-25l56-165h34" id="bu"/><g id="i"><use transform="matrix(0.06790123456790123,0,0,0.06790123456790123,0,0)" xlink:href="#bs"/><use transform="matrix(0.06790123456790123,0,0,0.06790123456790123,13.580246913580247,0)" xlink:href="#bt"/><use transform="matrix(0.06790123456790123,0,0,0.06790123456790123,21.660493827160494,0)" xlink:href="#bj"/><use transform="matrix(0.06790123456790123,0,0,0.06790123456790123,27.02469135802469,0)" xlink:href="#bu"/><use transform="matrix(0.06790123456790123,0,0,0.06790123456790123,39.24691358024691,0)" xlink:href="#bn"/><use transform="matrix(0.06790123456790123,0,0,0.06790123456790123,52.82716049382716,0)" xlink:href="#bt"/><use transform="matrix(0.06790123456790123,0,0,0.06790123456790123,60.907407407407405,0)" xlink:href="#bo"/></g><path fill="#fff" d="M27 0v-27h64v-190l-56 39v-29l58-41h29v221h61V0H27" id="bv"/><use transform="matrix(0.06790123456790123,0,0,0.06790123456790123,0,0)" xlink:href="#bv" id="j"/><path fill="#fff" d="M106-169C34-169 62-67 57 0H25v-261h32l-1 103c12-21 28-36 61-36 89 0 53 116 60 194h-32v-121c2-32-8-49-39-48" id="bw"/><path fill="#fff" d="M84 4C-5 8 30-112 23-190h32v120c0 31 7 50 39 49 72-2 45-101 50-169h31l1 190h-30c-1-10 1-25-2-33-11 22-28 36-60 37" id="bx"/><g id="k"><use transform="matrix(0.06790123456790123,0,0,0.06790123456790123,0,0)" xlink:href="#bw"/><use transform="matrix(0.06790123456790123,0,0,0.06790123456790123,13.580246913580247,0)" xlink:href="#bl"/><use transform="matrix(0.06790123456790123,0,0,0.06790123456790123,27.160493827160494,0)" xlink:href="#bx"/><use transform="matrix(0.06790123456790123,0,0,0.06790123456790123,40.74074074074074,0)" xlink:href="#bt"/><use transform="matrix(0.06790123456790123,0,0,0.06790123456790123,48.82098765432099,0)" xlink:href="#bo"/></g><path fill="#fff" d="M199 0l-22-63H83L61 0H9l90-248h61L250 0h-51zm-33-102l-36-108c-10 38-24 72-36 108h72" id="by"/><path fill="#fff" d="M190-63c-7 42-38 67-86 67-59 0-84-38-90-98-12-110 154-137 174-36l-49 2c-2-19-15-32-35-32-30 0-35 28-38 64-6 74 65 87 74 30" id="bz"/><path fill="#fff" d="M25 0v-261h50V0H25" id="bA"/><path fill="#fff" d="M110-194c64 0 96 36 96 99 0 64-35 99-97 99-61 0-95-36-95-99 0-62 34-99 96-99zm-1 164c35 0 45-28 45-65 0-40-10-65-43-65-34 0-45 26-45 65 0 36 10 65 43 65" id="bB"/><path fill="#fff" d="M135-194c87-1 58 113 63 194h-50c-7-57 23-157-34-157-59 0-34 97-39 157H25l-1-190h47c2 12-1 28 3 38 12-26 28-41 61-42" id="bC"/><g id="l"><use transform="matrix(0.09259259259259256,0,0,0.09259259259259256,0,0)" xlink:href="#by"/><use transform="matrix(0.09259259259259256,0,0,0.09259259259259256,23.981481481481474,0)" xlink:href="#bz"/><use transform="matrix(0.09259259259259256,0,0,0.09259259259259256,42.499999999999986,0)" xlink:href="#bz"/><use transform="matrix(0.09259259259259256,0,0,0.09259259259259256,61.0185185185185,0)" xlink:href="#aZ"/><use transform="matrix(0.09259259259259256,0,0,0.09259259259259256,79.53703703703701,0)" xlink:href="#bA"/><use transform="matrix(0.09259259259259256,0,0,0.09259259259259256,88.79629629629626,0)" xlink:href="#aZ"/><use transform="matrix(0.09259259259259256,0,0,0.09259259259259256,107.31481481481478,0)" xlink:href="#bb"/><use transform="matrix(0.09259259259259256,0,0,0.09259259259259256,120.27777777777773,0)" xlink:href="#bd"/><use transform="matrix(0.09259259259259256,0,0,0.09259259259259256,138.79629629629625,0)" xlink:href="#aW"/><use transform="matrix(0.09259259259259256,0,0,0.09259259259259256,149.81481481481475,0)" xlink:href="#aX"/><use transform="matrix(0.09259259259259256,0,0,0.09259259259259256,159.07407407407402,0)" xlink:href="#bB"/><use transform="matrix(0.09259259259259256,0,0,0.09259259259259256,179.3518518518518,0)" xlink:href="#bC"/></g><path fill="#fff" d="M85 4C-2 5 27-109 22-190h50c7 57-23 150 33 157 60-5 35-97 40-157h50l1 190h-47c-2-12 1-28-3-38-12 25-28 42-61 42" id="bD"/><path fill="#fff" d="M12 0v-35l95-120H19v-35h142v35L67-36h103V0H12" id="bE"/><g id="m"><use transform="matrix(0.09259259259259256,0,0,0.09259259259259256,0,0)" xlink:href="#ba"/><use transform="matrix(0.09259259259259256,0,0,0.09259259259259256,18.518518518518512,0)" xlink:href="#bD"/><use transform="matrix(0.09259259259259256,0,0,0.09259259259259256,38.79629629629628,0)" xlink:href="#aY"/><use transform="matrix(0.09259259259259256,0,0,0.09259259259259256,68.4259259259259,0)" xlink:href="#aY"/><use transform="matrix(0.09259259259259256,0,0,0.09259259259259256,98.05555555555551,0)" xlink:href="#bd"/><use transform="matrix(0.09259259259259256,0,0,0.09259259259259256,116.574074074074,0)" xlink:href="#bb"/><use transform="matrix(0.09259259259259256,0,0,0.09259259259259256,129.53703703703698,0)" xlink:href="#aX"/><use transform="matrix(0.09259259259259256,0,0,0.09259259259259256,138.79629629629625,0)" xlink:href="#bE"/><use transform="matrix(0.09259259259259256,0,0,0.09259259259259256,155.4629629629629,0)" xlink:href="#bd"/><use transform="matrix(0.09259259259259256,0,0,0.09259259259259256,173.9814814814814,0)" xlink:href="#aW"/><use transform="matrix(0.09259259259259256,0,0,0.09259259259259256,184.99999999999991,0)" xlink:href="#aX"/><use transform="matrix(0.09259259259259256,0,0,0.09259259259259256,194.25925925925918,0)" xlink:href="#bB"/><use transform="matrix(0.09259259259259256,0,0,0.09259259259259256,214.53703703703695,0)" xlink:href="#bC"/></g><path fill="#fff" d="M30 0v-248h187v28H63v79h144v27H63v87h162V0H30" id="bF"/><path fill="#fff" d="M141-36C126-15 110 5 73 4 37 3 15-17 15-53c-1-64 63-63 125-63 3-35-9-54-41-54-24 1-41 7-42 31l-33-3c5-37 33-52 76-52 45 0 72 20 72 64v82c-1 20 7 32 28 27v20c-31 9-61-2-59-35zM48-53c0 20 12 33 32 33 41-3 63-29 60-74-43 2-92-5-92 41" id="bG"/><path fill="#fff" d="M96-169c-40 0-48 33-48 73s9 75 48 75c24 0 41-14 43-38l32 2c-6 37-31 61-74 61-59 0-76-41-82-99-10-93 101-131 147-64 4 7 5 14 7 22l-32 3c-4-21-16-35-41-35" id="bH"/><g id="n"><use transform="matrix(0.06790123456790122,0,0,0.06790123456790122,0,0)" xlink:href="#bF"/><use transform="matrix(0.06790123456790122,0,0,0.06790123456790122,16.29629629629629,0)" xlink:href="#bG"/><use transform="matrix(0.06790123456790122,0,0,0.06790123456790122,29.876543209876534,0)" xlink:href="#bH"/><use transform="matrix(0.06790123456790122,0,0,0.06790123456790122,42.09876543209875,0)" xlink:href="#bw"/></g><path fill="#fff" d="M59-47c-2 24 18 29 38 22v24C64 9 27 4 27-40v-127H5v-23h24l9-43h21v43h35v23H59v120" id="bI"/><g id="o"><use transform="matrix(0.06790123456790122,0,0,0.06790123456790122,0,0)" xlink:href="#bG"/><use transform="matrix(0.06790123456790122,0,0,0.06790123456790122,13.580246913580243,0)" xlink:href="#bH"/><use transform="matrix(0.06790123456790122,0,0,0.06790123456790122,25.80246913580246,0)" xlink:href="#bH"/><use transform="matrix(0.06790123456790122,0,0,0.06790123456790122,38.02469135802468,0)" xlink:href="#bn"/><use transform="matrix(0.06790123456790122,0,0,0.06790123456790122,51.60493827160492,0)" xlink:href="#bk"/><use transform="matrix(0.06790123456790122,0,0,0.06790123456790122,56.96913580246912,0)" xlink:href="#bn"/><use transform="matrix(0.06790123456790122,0,0,0.06790123456790122,70.54938271604937,0)" xlink:href="#bt"/><use transform="matrix(0.06790123456790122,0,0,0.06790123456790122,78.6296296296296,0)" xlink:href="#bG"/><use transform="matrix(0.06790123456790122,0,0,0.06790123456790122,92.20987654320983,0)" xlink:href="#bI"/><use transform="matrix(0.06790123456790122,0,0,0.06790123456790122,98.99999999999997,0)" xlink:href="#bj"/><use transform="matrix(0.06790123456790122,0,0,0.06790123456790122,104.36419753086417,0)" xlink:href="#bl"/><use transform="matrix(0.06790123456790122,0,0,0.06790123456790122,117.94444444444441,0)" xlink:href="#bm"/></g><g id="p"><use transform="matrix(0.06790123456790122,0,0,0.06790123456790122,0,0)" xlink:href="#bn"/><use transform="matrix(0.06790123456790122,0,0,0.06790123456790122,13.580246913580243,0)" xlink:href="#bu"/><use transform="matrix(0.06790123456790122,0,0,0.06790123456790122,25.80246913580246,0)" xlink:href="#bn"/><use transform="matrix(0.06790123456790122,0,0,0.06790123456790122,39.38271604938271,0)" xlink:href="#bm"/><use transform="matrix(0.06790123456790122,0,0,0.06790123456790122,52.96296296296295,0)" xlink:href="#bI"/></g><g id="q"><use transform="matrix(0.06790123456790122,0,0,0.06790123456790122,0,0)" xlink:href="#bj"/><use transform="matrix(0.06790123456790122,0,0,0.06790123456790122,5.364197530864196,0)" xlink:href="#bo"/></g><g id="r"><use transform="matrix(0.06790123456790122,0,0,0.06790123456790122,0,0)" xlink:href="#bs"/><use transform="matrix(0.06790123456790122,0,0,0.06790123456790122,13.580246913580243,0)" xlink:href="#bn"/><use transform="matrix(0.06790123456790122,0,0,0.06790123456790122,27.160493827160487,0)" xlink:href="#bI"/><use transform="matrix(0.06790123456790122,0,0,0.06790123456790122,33.950617283950606,0)" xlink:href="#bn"/><use transform="matrix(0.06790123456790122,0,0,0.06790123456790122,47.530864197530846,0)" xlink:href="#bH"/><use transform="matrix(0.06790123456790122,0,0,0.06790123456790122,59.75308641975307,0)" xlink:href="#bI"/><use transform="matrix(0.06790123456790122,0,0,0.06790123456790122,66.54320987654319,0)" xlink:href="#bn"/><use transform="matrix(0.06790123456790122,0,0,0.06790123456790122,80.12345679012343,0)" xlink:href="#bs"/><use transform="matrix(0.06790123456790122,0,0,0.06790123456790122,93.70370370370367,0)" xlink:href="#bq"/></g><path fill="#fff" d="M9 0v-24l116-142H16v-24h144v24L44-24h123V0H9" id="bJ"/><g id="s"><use transform="matrix(0.06790123456790122,0,0,0.06790123456790122,0,0)" xlink:href="#bo"/><use transform="matrix(0.06790123456790122,0,0,0.06790123456790122,12.22222222222222,0)" xlink:href="#bx"/><use transform="matrix(0.06790123456790122,0,0,0.06790123456790122,25.80246913580246,0)" xlink:href="#bi"/><use transform="matrix(0.06790123456790122,0,0,0.06790123456790122,46.104938271604915,0)" xlink:href="#bi"/><use transform="matrix(0.06790123456790122,0,0,0.06790123456790122,66.40740740740739,0)" xlink:href="#bG"/><use transform="matrix(0.06790123456790122,0,0,0.06790123456790122,79.98765432098763,0)" xlink:href="#bt"/><use transform="matrix(0.06790123456790122,0,0,0.06790123456790122,88.06790123456787,0)" xlink:href="#bj"/><use transform="matrix(0.06790123456790122,0,0,0.06790123456790122,93.43209876543207,0)" xlink:href="#bJ"/><use transform="matrix(0.06790123456790122,0,0,0.06790123456790122,105.65432098765429,0)" xlink:href="#bn"/><use transform="matrix(0.06790123456790122,0,0,0.06790123456790122,119.23456790123453,0)" xlink:href="#bs"/><use transform="matrix(0.06790123456790122,0,0,0.06790123456790122,132.81481481481478,0)" xlink:href="#bq"/></g><g id="t"><use transform="matrix(0.06790123456790122,0,0,0.06790123456790122,0,0)" xlink:href="#bG"/><use transform="matrix(0.06790123456790122,0,0,0.06790123456790122,13.580246913580243,0)" xlink:href="#bm"/><use transform="matrix(0.06790123456790122,0,0,0.06790123456790122,27.160493827160487,0)" xlink:href="#bs"/></g><path fill="#fff" d="M177-190C167-65 218 103 67 71c-23-6-38-20-44-43l32-5c15 47 100 32 89-28v-30C133-14 115 1 83 1 29 1 15-40 15-95c0-56 16-97 71-98 29-1 48 16 59 35 1-10 0-23 2-32h30zM94-22c36 0 50-32 50-73 0-42-14-75-50-75-39 0-46 34-46 75s6 73 46 73" id="bK"/><g id="u"><use transform="matrix(0.06790123456790122,0,0,0.06790123456790122,0,0)" xlink:href="#bk"/><use transform="matrix(0.06790123456790122,0,0,0.06790123456790122,5.364197530864196,0)" xlink:href="#bl"/><use transform="matrix(0.06790123456790122,0,0,0.06790123456790122,18.94444444444444,0)" xlink:href="#bK"/><use transform="matrix(0.06790123456790122,0,0,0.06790123456790122,32.52469135802468,0)" xlink:href="#bK"/><use transform="matrix(0.06790123456790122,0,0,0.06790123456790122,46.104938271604915,0)" xlink:href="#bn"/><use transform="matrix(0.06790123456790122,0,0,0.06790123456790122,59.68518518518516,0)" xlink:href="#bs"/></g><g id="v"><use transform="matrix(0.09259259259259256,0,0,0.09259259259259256,0,0)" xlink:href="#by"/><use transform="matrix(0.09259259259259256,0,0,0.09259259259259256,23.981481481481474,0)" xlink:href="#bz"/><use transform="matrix(0.09259259259259256,0,0,0.09259259259259256,42.499999999999986,0)" xlink:href="#bz"/><use transform="matrix(0.09259259259259256,0,0,0.09259259259259256,61.0185185185185,0)" xlink:href="#aZ"/><use transform="matrix(0.09259259259259256,0,0,0.09259259259259256,79.53703703703701,0)" xlink:href="#bA"/><use transform="matrix(0.09259259259259256,0,0,0.09259259259259256,88.79629629629626,0)" xlink:href="#aZ"/><use transform="matrix(0.09259259259259256,0,0,0.09259259259259256,107.31481481481478,0)" xlink:href="#bb"/><use transform="matrix(0.09259259259259256,0,0,0.09259259259259256,120.27777777777773,0)" xlink:href="#bd"/><use transform="matrix(0.09259259259259256,0,0,0.09259259259259256,138.79629629629625,0)" xlink:href="#aW"/><use transform="matrix(0.09259259259259256,0,0,0.09259259259259256,149.81481481481475,0)" xlink:href="#aX"/><use transform="matrix(0.09259259259259256,0,0,0.09259259259259256,159.07407407407402,0)" xlink:href="#bB"/><use transform="matrix(0.09259259259259256,0,0,0.09259259259259256,179.3518518518518,0)" xlink:href="#bC"/></g><path fill="#fff" d="M123 10C108 53 80 86 19 72V37c35 8 53-11 59-39L3-190h52l48 148c12-52 28-100 44-148h51" id="bL"/><g id="w"><use transform="matrix(0.09259259259259256,0,0,0.09259259259259256,0,0)" xlink:href="#ba"/><use transform="matrix(0.09259259259259256,0,0,0.09259259259259256,18.518518518518512,0)" xlink:href="#bD"/><use transform="matrix(0.09259259259259256,0,0,0.09259259259259256,38.79629629629628,0)" xlink:href="#aY"/><use transform="matrix(0.09259259259259256,0,0,0.09259259259259256,68.4259259259259,0)" xlink:href="#aY"/><use transform="matrix(0.09259259259259256,0,0,0.09259259259259256,98.05555555555551,0)" xlink:href="#bd"/><use transform="matrix(0.09259259259259256,0,0,0.09259259259259256,116.574074074074,0)" xlink:href="#bb"/><use transform="matrix(0.09259259259259256,0,0,0.09259259259259256,129.53703703703698,0)" xlink:href="#bL"/></g><path fill="#fff" d="M135-194c52 0 70 43 70 98 0 56-19 99-73 100-30 1-46-15-58-35L72 0H24l1-261h50v104c11-23 29-37 60-37zM114-30c31 0 40-27 40-66 0-37-7-63-39-63s-41 28-41 65c0 36 8 64 40 64" id="bM"/><g id="x"><use transform="matrix(0.09259259259259256,0,0,0.09259259259259256,0,0)" xlink:href="#aW"/><use transform="matrix(0.09259259259259256,0,0,0.09259259259259256,11.018518518518515,0)" xlink:href="#bd"/><use transform="matrix(0.09259259259259256,0,0,0.09259259259259256,29.537037037037027,0)" xlink:href="#bM"/><use transform="matrix(0.09259259259259256,0,0,0.09259259259259256,49.814814814814795,0)" xlink:href="#bA"/><use transform="matrix(0.09259259259259256,0,0,0.09259259259259256,59.07407407407404,0)" xlink:href="#aZ"/></g><path fill="#fff" d="M64 0c3-98 48-159 88-221H18v-27h164v26C143-157 98-101 97 0H64" id="bN"/><g id="y"><use transform="matrix(0.06790123456790123,0,0,0.06790123456790123,0,0)" xlink:href="#bv"/><use transform="matrix(0.06790123456790123,0,0,0.06790123456790123,13.580246913580247,0)" xlink:href="#bg"/><use transform="matrix(0.06790123456790123,0,0,0.06790123456790123,20.37037037037037,0)" xlink:href="#bN"/></g><path fill="#fff" d="M115-194c53 0 69 39 70 98 0 66-23 100-70 100C84 3 66-7 56-30L54 0H23l1-261h32v101c10-23 28-34 59-34zm-8 174c40 0 45-34 45-75 0-40-5-75-45-74-42 0-51 32-51 76 0 43 10 73 51 73" id="bO"/><g id="z"><use transform="matrix(0.06790123456790123,0,0,0.06790123456790123,0,0)" xlink:href="#bO"/><use transform="matrix(0.06790123456790123,0,0,0.06790123456790123,13.580246913580247,0)" xlink:href="#bj"/><use transform="matrix(0.06790123456790123,0,0,0.06790123456790123,18.944444444444443,0)" xlink:href="#bk"/><use transform="matrix(0.06790123456790123,0,0,0.06790123456790123,24.30864197530864,0)" xlink:href="#bk"/><use transform="matrix(0.06790123456790123,0,0,0.06790123456790123,29.672839506172835,0)" xlink:href="#bj"/><use transform="matrix(0.06790123456790123,0,0,0.06790123456790123,35.037037037037024,0)" xlink:href="#bl"/><use transform="matrix(0.06790123456790123,0,0,0.06790123456790123,48.61728395061728,0)" xlink:href="#bm"/></g><path fill="#fff" d="M115-194c55 1 70 41 70 98S169 2 115 4C84 4 66-9 55-30l1 105H24l-1-265h31l2 30c10-21 28-34 59-34zm-8 174c40 0 45-34 45-75s-6-73-45-74c-42 0-51 32-51 76 0 43 10 73 51 73" id="bP"/><g id="A"><use transform="matrix(0.06790123456790123,0,0,0.06790123456790123,0,0)" xlink:href="#bn"/><use transform="matrix(0.06790123456790123,0,0,0.06790123456790123,13.580246913580247,0)" xlink:href="#bP"/><use transform="matrix(0.06790123456790123,0,0,0.06790123456790123,27.160493827160494,0)" xlink:href="#bl"/><use transform="matrix(0.06790123456790123,0,0,0.06790123456790123,40.74074074074074,0)" xlink:href="#bH"/><use transform="matrix(0.06790123456790123,0,0,0.06790123456790123,52.96296296296296,0)" xlink:href="#bw"/><use transform="matrix(0.06790123456790123,0,0,0.06790123456790123,66.54320987654322,0)" xlink:href="#bo"/></g><g id="B"><use transform="matrix(0.06790123456790123,0,0,0.06790123456790123,0,0)" xlink:href="#bH"/><use transform="matrix(0.06790123456790123,0,0,0.06790123456790123,12.222222222222221,0)" xlink:href="#bG"/><use transform="matrix(0.06790123456790123,0,0,0.06790123456790123,25.80246913580247,0)" xlink:href="#bP"/><use transform="matrix(0.06790123456790123,0,0,0.06790123456790123,39.382716049382715,0)" xlink:href="#bI"/><use transform="matrix(0.06790123456790123,0,0,0.06790123456790123,46.172839506172835,0)" xlink:href="#bx"/><use transform="matrix(0.06790123456790123,0,0,0.06790123456790123,59.75308641975308,0)" xlink:href="#bt"/><use transform="matrix(0.06790123456790123,0,0,0.06790123456790123,67.83333333333333,0)" xlink:href="#bn"/><use transform="matrix(0.06790123456790123,0,0,0.06790123456790123,81.41358024691358,0)" xlink:href="#bs"/></g><use transform="matrix(0.06790123456790122,0,0,0.06790123456790122,0,0)" xlink:href="#bp" id="C"/><path fill="#fff" d="M101-251c82-7 93 87 43 132L82-64C71-53 59-42 53-27h129V0H18c2-99 128-94 128-182 0-28-16-43-45-43s-46 15-49 41l-32-3c6-41 34-60 81-64" id="bQ"/><g id="D"><use transform="matrix(0.06790123456790122,0,0,0.06790123456790122,0,0)" xlink:href="#bQ"/><use transform="matrix(0.06790123456790122,0,0,0.06790123456790122,13.580246913580243,0)" xlink:href="#br"/></g><path fill="#fff" d="M179-190L93 31C79 59 56 82 12 73V49c39 6 53-20 64-50L1-190h34L92-34l54-156h33" id="bR"/><g id="E"><use transform="matrix(0.06790123456790122,0,0,0.06790123456790122,0,0)" xlink:href="#bo"/><use transform="matrix(0.06790123456790122,0,0,0.06790123456790122,12.22222222222222,0)" xlink:href="#bx"/><use transform="matrix(0.06790123456790122,0,0,0.06790123456790122,25.80246913580246,0)" xlink:href="#bi"/><use transform="matrix(0.06790123456790122,0,0,0.06790123456790122,46.104938271604915,0)" xlink:href="#bi"/><use transform="matrix(0.06790123456790122,0,0,0.06790123456790122,66.40740740740739,0)" xlink:href="#bG"/><use transform="matrix(0.06790123456790122,0,0,0.06790123456790122,79.98765432098763,0)" xlink:href="#bt"/><use transform="matrix(0.06790123456790122,0,0,0.06790123456790122,88.06790123456787,0)" xlink:href="#bR"/></g><g id="F"><use transform="matrix(0.06790123456790122,0,0,0.06790123456790122,0,0)" xlink:href="#bu"/><use transform="matrix(0.06790123456790122,0,0,0.06790123456790122,12.22222222222222,0)" xlink:href="#bG"/><use transform="matrix(0.06790123456790122,0,0,0.06790123456790122,25.80246913580246,0)" xlink:href="#bt"/><use transform="matrix(0.06790123456790122,0,0,0.06790123456790122,33.88271604938271,0)" xlink:href="#bj"/><use transform="matrix(0.06790123456790122,0,0,0.06790123456790122,39.246913580246904,0)" xlink:href="#bG"/><use transform="matrix(0.06790123456790122,0,0,0.06790123456790122,52.82716049382716,0)" xlink:href="#bO"/><use transform="matrix(0.06790123456790122,0,0,0.06790123456790122,66.40740740740739,0)" xlink:href="#bk"/><use transform="matrix(0.06790123456790122,0,0,0.06790123456790122,71.77160493827158,0)" xlink:href="#bn"/><use transform="matrix(0.06790123456790122,0,0,0.06790123456790122,85.35185185185183,0)" xlink:href="#bo"/></g><g id="G"><use transform="matrix(0.06790123456790122,0,0,0.06790123456790122,0,0)" xlink:href="#bH"/><use transform="matrix(0.06790123456790122,0,0,0.06790123456790122,12.22222222222222,0)" xlink:href="#bG"/><use transform="matrix(0.06790123456790122,0,0,0.06790123456790122,25.80246913580246,0)" xlink:href="#bP"/><use transform="matrix(0.06790123456790122,0,0,0.06790123456790122,39.38271604938271,0)" xlink:href="#bI"/><use transform="matrix(0.06790123456790122,0,0,0.06790123456790122,46.17283950617283,0)" xlink:href="#bx"/><use transform="matrix(0.06790123456790122,0,0,0.06790123456790122,59.75308641975307,0)" xlink:href="#bt"/><use transform="matrix(0.06790123456790122,0,0,0.06790123456790122,67.83333333333331,0)" xlink:href="#bn"/></g><path fill="#fff" d="M143 0L79-87 56-68V0H24v-261h32v163l83-92h37l-77 82L181 0h-38" id="bS"/><g id="H"><use transform="matrix(0.06790123456790122,0,0,0.06790123456790122,0,0)" xlink:href="#bS"/><use transform="matrix(0.06790123456790122,0,0,0.06790123456790122,12.22222222222222,0)" xlink:href="#bj"/><use transform="matrix(0.06790123456790122,0,0,0.06790123456790122,17.586419753086417,0)" xlink:href="#bm"/><use transform="matrix(0.06790123456790122,0,0,0.06790123456790122,31.16666666666666,0)" xlink:href="#bn"/><use transform="matrix(0.06790123456790122,0,0,0.06790123456790122,44.746913580246904,0)" xlink:href="#bi"/><use transform="matrix(0.06790123456790122,0,0,0.06790123456790122,65.04938271604937,0)" xlink:href="#bG"/><use transform="matrix(0.06790123456790122,0,0,0.06790123456790122,78.6296296296296,0)" xlink:href="#bI"/><use transform="matrix(0.06790123456790122,0,0,0.06790123456790122,85.41975308641973,0)" xlink:href="#bj"/><use transform="matrix(0.06790123456790122,0,0,0.06790123456790122,90.78395061728392,0)" xlink:href="#bH"/></g><g id="I"><use transform="matrix(0.06790123456790122,0,0,0.06790123456790122,0,0)" xlink:href="#bG"/><use transform="matrix(0.06790123456790122,0,0,0.06790123456790122,13.580246913580243,0)" xlink:href="#bK"/><use transform="matrix(0.06790123456790122,0,0,0.06790123456790122,27.160493827160487,0)" xlink:href="#bK"/><use transform="matrix(0.06790123456790122,0,0,0.06790123456790122,40.74074074074073,0)" xlink:href="#bt"/><use transform="matrix(0.06790123456790122,0,0,0.06790123456790122,48.82098765432098,0)" xlink:href="#bn"/><use transform="matrix(0.06790123456790122,0,0,0.06790123456790122,62.40123456790123,0)" xlink:href="#bK"/><use transform="matrix(0.06790123456790122,0,0,0.06790123456790122,75.98148148148147,0)" xlink:href="#bG"/><use transform="matrix(0.06790123456790122,0,0,0.06790123456790122,89.5617283950617,0)" xlink:href="#bI"/><use transform="matrix(0.06790123456790122,0,0,0.06790123456790122,96.35185185185183,0)" xlink:href="#bn"/><use transform="matrix(0.06790123456790122,0,0,0.06790123456790122,109.93209876543207,0)" xlink:href="#bo"/><use transform="matrix(0.06790123456790122,0,0,0.06790123456790122,122.15432098765429,0)" xlink:href="#bq"/></g><g id="J"><use transform="matrix(0.06790123456790122,0,0,0.06790123456790122,0,0)" xlink:href="#bs"/><use transform="matrix(0.06790123456790122,0,0,0.06790123456790122,13.580246913580243,0)" xlink:href="#bt"/><use transform="matrix(0.06790123456790122,0,0,0.06790123456790122,21.660493827160487,0)" xlink:href="#bj"/><use transform="matrix(0.06790123456790122,0,0,0.06790123456790122,27.024691358024683,0)" xlink:href="#bu"/><use transform="matrix(0.06790123456790122,0,0,0.06790123456790122,39.246913580246904,0)" xlink:href="#bn"/><use transform="matrix(0.06790123456790122,0,0,0.06790123456790122,52.82716049382716,0)" xlink:href="#bt"/></g><g id="K"><use transform="matrix(0.06790123456790122,0,0,0.06790123456790122,0,0)" xlink:href="#bO"/><use transform="matrix(0.06790123456790122,0,0,0.06790123456790122,13.580246913580243,0)" xlink:href="#bn"/><use transform="matrix(0.06790123456790122,0,0,0.06790123456790122,27.160493827160487,0)" xlink:href="#bw"/><use transform="matrix(0.06790123456790122,0,0,0.06790123456790122,40.74074074074073,0)" xlink:href="#bG"/><use transform="matrix(0.06790123456790122,0,0,0.06790123456790122,54.32098765432097,0)" xlink:href="#bu"/><use transform="matrix(0.06790123456790122,0,0,0.06790123456790122,66.54320987654319,0)" xlink:href="#bj"/><use transform="matrix(0.06790123456790122,0,0,0.06790123456790122,71.90740740740739,0)" xlink:href="#bl"/><use transform="matrix(0.06790123456790122,0,0,0.06790123456790122,85.48765432098763,0)" xlink:href="#bt"/><use transform="matrix(0.06790123456790122,0,0,0.06790123456790122,92.20987654320983,0)" xlink:href="#bq"/></g><path fill="#fff" d="M206 0h-36l-40-164L89 0H53L-1-190h32L70-26l43-164h34l41 164 42-164h31" id="bT"/><g id="L"><use transform="matrix(0.06790123456790122,0,0,0.06790123456790122,0,0)" xlink:href="#bt"/><use transform="matrix(0.06790123456790122,0,0,0.06790123456790122,8.080246913580245,0)" xlink:href="#bl"/><use transform="matrix(0.06790123456790122,0,0,0.06790123456790122,21.660493827160487,0)" xlink:href="#bG"/><use transform="matrix(0.06790123456790122,0,0,0.06790123456790122,35.24074074074073,0)" xlink:href="#bs"/><use transform="matrix(0.06790123456790122,0,0,0.06790123456790122,48.82098765432097,0)" xlink:href="#bT"/><use transform="matrix(0.06790123456790122,0,0,0.06790123456790122,66.40740740740739,0)" xlink:href="#bG"/><use transform="matrix(0.06790123456790122,0,0,0.06790123456790122,79.98765432098763,0)" xlink:href="#bR"/></g><g id="M"><use transform="matrix(0.06790123456790122,0,0,0.06790123456790122,0,0)" xlink:href="#bH"/><use transform="matrix(0.06790123456790122,0,0,0.06790123456790122,12.22222222222222,0)" xlink:href="#bw"/><use transform="matrix(0.06790123456790122,0,0,0.06790123456790122,25.80246913580246,0)" xlink:href="#bG"/><use transform="matrix(0.06790123456790122,0,0,0.06790123456790122,39.38271604938271,0)" xlink:href="#bt"/><use transform="matrix(0.06790123456790122,0,0,0.06790123456790122,47.462962962962955,0)" xlink:href="#bG"/><use transform="matrix(0.06790123456790122,0,0,0.06790123456790122,61.0432098765432,0)" xlink:href="#bH"/><use transform="matrix(0.06790123456790122,0,0,0.06790123456790122,73.26543209876542,0)" xlink:href="#bI"/><use transform="matrix(0.06790123456790122,0,0,0.06790123456790122,80.05555555555556,0)" xlink:href="#bn"/><use transform="matrix(0.06790123456790122,0,0,0.06790123456790122,93.63580246913578,0)" xlink:href="#bt"/><use transform="matrix(0.06790123456790122,0,0,0.06790123456790122,101.71604938271602,0)" xlink:href="#bj"/><use transform="matrix(0.06790123456790122,0,0,0.06790123456790122,107.08024691358023,0)" xlink:href="#bo"/><use transform="matrix(0.06790123456790122,0,0,0.06790123456790122,119.30246913580244,0)" xlink:href="#bI"/><use transform="matrix(0.06790123456790122,0,0,0.06790123456790122,126.09259259259257,0)" xlink:href="#bj"/><use transform="matrix(0.06790123456790122,0,0,0.06790123456790122,131.45679012345676,0)" xlink:href="#bH"/><use transform="matrix(0.06790123456790122,0,0,0.06790123456790122,143.67901234567898,0)" xlink:href="#bo"/></g><path fill="#fff" d="M128 0H69L1-190h53L99-40l48-150h52" id="bU"/><g id="N"><use transform="matrix(0.09259259259259256,0,0,0.09259259259259256,0,0)" xlink:href="#aU"/><use transform="matrix(0.09259259259259256,0,0,0.09259259259259256,23.981481481481474,0)" xlink:href="#bb"/><use transform="matrix(0.09259259259259256,0,0,0.09259259259259256,36.94444444444443,0)" xlink:href="#aX"/><use transform="matrix(0.09259259259259256,0,0,0.09259259259259256,46.20370370370368,0)" xlink:href="#bU"/><use transform="matrix(0.09259259259259256,0,0,0.09259259259259256,64.7222222222222,0)" xlink:href="#aZ"/><use transform="matrix(0.09259259259259256,0,0,0.09259259259259256,83.2407407407407,0)" xlink:href="#bb"/></g><path fill="#fff" d="M135-194c53 0 70 44 70 98 0 56-19 98-73 100-31 1-45-17-59-34 3 33 2 69 2 105H25l-1-265h48c2 10 0 23 3 31 11-24 29-35 60-35zM114-30c33 0 39-31 40-66 0-38-9-64-40-64-56 0-55 130 0 130" id="bV"/><path fill="#fff" d="M121-226c-27-7-43 5-38 36h38v33H83V0H34v-157H6v-33h28c-9-59 32-81 87-68v32" id="bW"/><g id="O"><use transform="matrix(0.09259259259259256,0,0,0.09259259259259256,0,0)" xlink:href="#bV"/><use transform="matrix(0.09259259259259256,0,0,0.09259259259259256,20.27777777777777,0)" xlink:href="#bb"/><use transform="matrix(0.09259259259259256,0,0,0.09259259259259256,33.24074074074073,0)" xlink:href="#bB"/><use transform="matrix(0.09259259259259256,0,0,0.09259259259259256,53.51851851851851,0)" xlink:href="#bW"/><use transform="matrix(0.09259259259259256,0,0,0.09259259259259256,64.53703703703702,0)" xlink:href="#aX"/><use transform="matrix(0.09259259259259256,0,0,0.09259259259259256,73.79629629629628,0)" xlink:href="#bA"/><use transform="matrix(0.09259259259259256,0,0,0.09259259259259256,83.05555555555553,0)" xlink:href="#aZ"/></g><path fill="#fff" d="M195-6C206 82 75 100 31 46c-4-6-6-13-8-21l49-6c3 16 16 24 34 25 40 0 42-37 40-79-11 22-30 35-61 35-53 0-70-43-70-97 0-56 18-96 73-97 30 0 46 14 59 34l2-30h47zm-90-29c32 0 41-27 41-63 0-35-9-62-40-62-32 0-39 29-40 63 0 36 9 62 39 62" id="bX"/><g id="P"><use transform="matrix(0.09259259259259256,0,0,0.09259259259259256,0,0)" xlink:href="#bX"/><use transform="matrix(0.09259259259259256,0,0,0.09259259259259256,20.27777777777777,0)" xlink:href="#aZ"/><use transform="matrix(0.09259259259259256,0,0,0.09259259259259256,38.79629629629628,0)" xlink:href="#bC"/><use transform="matrix(0.09259259259259256,0,0,0.09259259259259256,59.074074074074055,0)" xlink:href="#aZ"/><use transform="matrix(0.09259259259259256,0,0,0.09259259259259256,77.59259259259257,0)" xlink:href="#bb"/><use transform="matrix(0.09259259259259256,0,0,0.09259259259259256,90.55555555555553,0)" xlink:href="#bd"/><use transform="matrix(0.09259259259259256,0,0,0.09259259259259256,109.07407407407406,0)" xlink:href="#aW"/><use transform="matrix(0.09259259259259256,0,0,0.09259259259259256,120.09259259259257,0)" xlink:href="#aX"/><use transform="matrix(0.09259259259259256,0,0,0.09259259259259256,129.35185185185182,0)" xlink:href="#bB"/><use transform="matrix(0.09259259259259256,0,0,0.09259259259259256,149.6296296296296,0)" xlink:href="#bC"/></g><path fill="#fff" d="M205 0l-28-72H64L36 0H1l101-248h38L239 0h-34zm-38-99l-47-123c-12 45-31 82-46 123h93" id="bY"/><use transform="matrix(0.06790123456790122,0,0,0.06790123456790122,0,0)" xlink:href="#bY" id="Q"/><g id="R"><use transform="matrix(0.06790123456790122,0,0,0.06790123456790122,0,0)" xlink:href="#bo"/><use transform="matrix(0.06790123456790122,0,0,0.06790123456790122,12.22222222222222,0)" xlink:href="#bI"/><use transform="matrix(0.06790123456790122,0,0,0.06790123456790122,19.01234567901234,0)" xlink:href="#bG"/><use transform="matrix(0.06790123456790122,0,0,0.06790123456790122,32.59259259259258,0)" xlink:href="#bI"/><use transform="matrix(0.06790123456790122,0,0,0.06790123456790122,39.3827160493827,0)" xlink:href="#bj"/><use transform="matrix(0.06790123456790122,0,0,0.06790123456790122,44.7469135802469,0)" xlink:href="#bo"/><use transform="matrix(0.06790123456790122,0,0,0.06790123456790122,56.96913580246912,0)" xlink:href="#bI"/><use transform="matrix(0.06790123456790122,0,0,0.06790123456790122,63.75925925925924,0)" xlink:href="#bj"/><use transform="matrix(0.06790123456790122,0,0,0.06790123456790122,69.12345679012344,0)" xlink:href="#bH"/><use transform="matrix(0.06790123456790122,0,0,0.06790123456790122,81.34567901234566,0)" xlink:href="#bG"/><use transform="matrix(0.06790123456790122,0,0,0.06790123456790122,94.9259259259259,0)" xlink:href="#bk"/></g><path fill="#fff" d="M101-234c-31-9-42 10-38 44h38v23H63V0H32v-167H5v-23h27c-7-52 17-82 69-68v24" id="bZ"/><g id="S"><use transform="matrix(0.06790123456790122,0,0,0.06790123456790122,0,0)" xlink:href="#bP"/><use transform="matrix(0.06790123456790122,0,0,0.06790123456790122,13.580246913580243,0)" xlink:href="#bt"/><use transform="matrix(0.06790123456790122,0,0,0.06790123456790122,21.660493827160487,0)" xlink:href="#bl"/><use transform="matrix(0.06790123456790122,0,0,0.06790123456790122,35.24074074074073,0)" xlink:href="#bZ"/><use transform="matrix(0.06790123456790122,0,0,0.06790123456790122,42.03086419753085,0)" xlink:href="#bj"/><use transform="matrix(0.06790123456790122,0,0,0.06790123456790122,47.39506172839505,0)" xlink:href="#bk"/><use transform="matrix(0.06790123456790122,0,0,0.06790123456790122,52.759259259259245,0)" xlink:href="#bn"/></g><g id="T"><use transform="matrix(0.06790123456790122,0,0,0.06790123456790122,0,0)" xlink:href="#bH"/><use transform="matrix(0.06790123456790122,0,0,0.06790123456790122,12.22222222222222,0)" xlink:href="#bt"/><use transform="matrix(0.06790123456790122,0,0,0.06790123456790122,20.302469135802465,0)" xlink:href="#bn"/><use transform="matrix(0.06790123456790122,0,0,0.06790123456790122,33.88271604938271,0)" xlink:href="#bG"/><use transform="matrix(0.06790123456790122,0,0,0.06790123456790122,47.46296296296295,0)" xlink:href="#bI"/><use transform="matrix(0.06790123456790122,0,0,0.06790123456790122,54.25308641975307,0)" xlink:href="#bn"/><use transform="matrix(0.06790123456790122,0,0,0.06790123456790122,67.83333333333331,0)" xlink:href="#bs"/></g><g id="U"><use transform="matrix(0.06790123456790122,0,0,0.06790123456790122,0,0)" xlink:href="#bZ"/><use transform="matrix(0.06790123456790122,0,0,0.06790123456790122,6.790123456790122,0)" xlink:href="#bl"/><use transform="matrix(0.06790123456790122,0,0,0.06790123456790122,20.370370370370367,0)" xlink:href="#bt"/></g><g id="V"><use transform="matrix(0.06790123456790122,0,0,0.06790123456790122,0,0)" xlink:href="#bn"/><use transform="matrix(0.06790123456790122,0,0,0.06790123456790122,13.580246913580243,0)" xlink:href="#bG"/><use transform="matrix(0.06790123456790122,0,0,0.06790123456790122,27.160493827160487,0)" xlink:href="#bH"/><use transform="matrix(0.06790123456790122,0,0,0.06790123456790122,39.38271604938271,0)" xlink:href="#bw"/></g><g id="W"><use transform="matrix(0.06790123456790122,0,0,0.06790123456790122,0,0)" xlink:href="#bs"/><use transform="matrix(0.06790123456790122,0,0,0.06790123456790122,13.580246913580243,0)" xlink:href="#bt"/><use transform="matrix(0.06790123456790122,0,0,0.06790123456790122,21.660493827160487,0)" xlink:href="#bj"/><use transform="matrix(0.06790123456790122,0,0,0.06790123456790122,27.024691358024683,0)" xlink:href="#bu"/><use transform="matrix(0.06790123456790122,0,0,0.06790123456790122,39.246913580246904,0)" xlink:href="#bn"/><use transform="matrix(0.06790123456790122,0,0,0.06790123456790122,52.82716049382716,0)" xlink:href="#bt"/></g><g id="X"><use transform="matrix(0.06790123456790123,0,0,0.06790123456790123,0,0)" xlink:href="#bv"/><use transform="matrix(0.06790123456790123,0,0,0.06790123456790123,13.580246913580247,0)" xlink:href="#bq"/><use transform="matrix(0.06790123456790123,0,0,0.06790123456790123,20.37037037037037,0)" xlink:href="#bQ"/><use transform="matrix(0.06790123456790123,0,0,0.06790123456790123,33.95061728395062,0)" xlink:href="#br"/><use transform="matrix(0.06790123456790123,0,0,0.06790123456790123,47.53086419753087,0)" xlink:href="#br"/></g><g id="Y"><use transform="matrix(0.06790123456790123,0,0,0.06790123456790123,0,0)" xlink:href="#bs"/><use transform="matrix(0.06790123456790123,0,0,0.06790123456790123,13.580246913580247,0)" xlink:href="#bG"/><use transform="matrix(0.06790123456790123,0,0,0.06790123456790123,27.160493827160494,0)" xlink:href="#bI"/><use transform="matrix(0.06790123456790123,0,0,0.06790123456790123,33.95061728395062,0)" xlink:href="#bG"/></g><g id="Z"><use transform="matrix(0.06790123456790123,0,0,0.06790123456790123,0,0)" xlink:href="#bP"/><use transform="matrix(0.06790123456790123,0,0,0.06790123456790123,13.580246913580247,0)" xlink:href="#bl"/><use transform="matrix(0.06790123456790123,0,0,0.06790123456790123,27.160493827160494,0)" xlink:href="#bj"/><use transform="matrix(0.06790123456790123,0,0,0.06790123456790123,32.52469135802469,0)" xlink:href="#bm"/><use transform="matrix(0.06790123456790123,0,0,0.06790123456790123,46.10493827160494,0)" xlink:href="#bI"/><use transform="matrix(0.06790123456790123,0,0,0.06790123456790123,52.89506172839506,0)" xlink:href="#bo"/></g><g id="aa"><use transform="matrix(0.06790123456790123,0,0,0.06790123456790123,0,0)" xlink:href="#bZ"/><use transform="matrix(0.06790123456790123,0,0,0.06790123456790123,6.790123456790123,0)" xlink:href="#bl"/><use transform="matrix(0.06790123456790123,0,0,0.06790123456790123,20.37037037037037,0)" xlink:href="#bt"/></g><g id="ab"><use transform="matrix(0.06790123456790123,0,0,0.06790123456790123,0,0)" xlink:href="#bn"/><use transform="matrix(0.06790123456790123,0,0,0.06790123456790123,13.580246913580247,0)" xlink:href="#bG"/><use transform="matrix(0.06790123456790123,0,0,0.06790123456790123,27.160493827160494,0)" xlink:href="#bH"/><use transform="matrix(0.06790123456790123,0,0,0.06790123456790123,39.382716049382715,0)" xlink:href="#bw"/></g><g id="ac"><use transform="matrix(0.06790123456790123,0,0,0.06790123456790123,0,0)" xlink:href="#bs"/><use transform="matrix(0.06790123456790123,0,0,0.06790123456790123,13.580246913580247,0)" xlink:href="#bt"/><use transform="matrix(0.06790123456790123,0,0,0.06790123456790123,21.660493827160494,0)" xlink:href="#bj"/><use transform="matrix(0.06790123456790123,0,0,0.06790123456790123,27.02469135802469,0)" xlink:href="#bu"/><use transform="matrix(0.06790123456790123,0,0,0.06790123456790123,39.24691358024691,0)" xlink:href="#bn"/><use transform="matrix(0.06790123456790123,0,0,0.06790123456790123,52.82716049382716,0)" xlink:href="#bt"/></g><path fill="#fff" d="M233-177c-1 41-23 64-60 70L243 0h-38l-65-103H63V0H30v-248c88 3 205-21 203 71zM63-129c60-2 137 13 137-47 0-61-80-42-137-45v92" id="ca"/><g id="ad"><use transform="matrix(0.06790123456790123,0,0,0.06790123456790123,0,0)" xlink:href="#ca"/><use transform="matrix(0.06790123456790123,0,0,0.06790123456790123,17.586419753086417,0)" xlink:href="#bG"/><use transform="matrix(0.06790123456790123,0,0,0.06790123456790123,31.166666666666664,0)" xlink:href="#bI"/><use transform="matrix(0.06790123456790123,0,0,0.06790123456790123,37.95679012345679,0)" xlink:href="#bn"/><use transform="matrix(0.06790123456790123,0,0,0.06790123456790123,51.53703703703703,0)" xlink:href="#bo"/><use transform="matrix(0.06790123456790123,0,0,0.06790123456790123,63.75925925925925,0)" xlink:href="#bq"/></g><g id="ae"><use transform="matrix(0.06790123456790123,0,0,0.06790123456790123,0,0)" xlink:href="#bP"/><use transform="matrix(0.06790123456790123,0,0,0.06790123456790123,13.580246913580247,0)" xlink:href="#bn"/><use transform="matrix(0.06790123456790123,0,0,0.06790123456790123,27.160493827160494,0)" xlink:href="#bt"/><use transform="matrix(0.06790123456790123,0,0,0.06790123456790123,35.24074074074074,0)" xlink:href="#bH"/><use transform="matrix(0.06790123456790123,0,0,0.06790123456790123,47.46296296296296,0)" xlink:href="#bn"/><use transform="matrix(0.06790123456790123,0,0,0.06790123456790123,61.04320987654321,0)" xlink:href="#bm"/><use transform="matrix(0.06790123456790123,0,0,0.06790123456790123,74.62345679012346,0)" xlink:href="#bI"/><use transform="matrix(0.06790123456790123,0,0,0.06790123456790123,81.41358024691358,0)" xlink:href="#bj"/><use transform="matrix(0.06790123456790123,0,0,0.06790123456790123,86.77777777777779,0)" xlink:href="#bk"/><use transform="matrix(0.06790123456790123,0,0,0.06790123456790123,92.14197530864199,0)" xlink:href="#bn"/><use transform="matrix(0.06790123456790123,0,0,0.06790123456790123,105.72222222222223,0)" xlink:href="#bo"/><use transform="matrix(0.06790123456790123,0,0,0.06790123456790123,117.94444444444446,0)" xlink:href="#bq"/></g><g id="af"><use transform="matrix(0.06790123456790123,0,0,0.06790123456790123,0,0)" xlink:href="#bG"/><use transform="matrix(0.06790123456790123,0,0,0.06790123456790123,13.580246913580247,0)" xlink:href="#bm"/><use transform="matrix(0.06790123456790123,0,0,0.06790123456790123,27.160493827160494,0)" xlink:href="#bs"/></g><g id="ag"><use transform="matrix(0.06790123456790123,0,0,0.06790123456790123,0,0)" xlink:href="#bo"/><use transform="matrix(0.06790123456790123,0,0,0.06790123456790123,12.222222222222221,0)" xlink:href="#bI"/><use transform="matrix(0.06790123456790123,0,0,0.06790123456790123,19.012345679012345,0)" xlink:href="#bt"/><use transform="matrix(0.06790123456790123,0,0,0.06790123456790123,27.09259259259259,0)" xlink:href="#bl"/><use transform="matrix(0.06790123456790123,0,0,0.06790123456790123,40.672839506172835,0)" xlink:href="#bm"/><use transform="matrix(0.06790123456790123,0,0,0.06790123456790123,54.25308641975308,0)" xlink:href="#bK"/><use transform="matrix(0.06790123456790123,0,0,0.06790123456790123,67.83333333333333,0)" xlink:href="#bn"/><use transform="matrix(0.06790123456790123,0,0,0.06790123456790123,81.41358024691358,0)" xlink:href="#bo"/><use transform="matrix(0.06790123456790123,0,0,0.06790123456790123,93.6358024691358,0)" xlink:href="#bI"/></g><g id="ah"><use transform="matrix(0.06790123456790123,0,0,0.06790123456790123,0,0)" xlink:href="#bn"/><use transform="matrix(0.06790123456790123,0,0,0.06790123456790123,13.580246913580247,0)" xlink:href="#bu"/><use transform="matrix(0.06790123456790123,0,0,0.06790123456790123,25.80246913580247,0)" xlink:href="#bn"/><use transform="matrix(0.06790123456790123,0,0,0.06790123456790123,39.382716049382715,0)" xlink:href="#bm"/><use transform="matrix(0.06790123456790123,0,0,0.06790123456790123,52.96296296296296,0)" xlink:href="#bI"/><use transform="matrix(0.06790123456790123,0,0,0.06790123456790123,59.75308641975309,0)" xlink:href="#bo"/></g><g id="ai"><use transform="matrix(0.06790123456790123,0,0,0.06790123456790123,0,0)" xlink:href="#bP"/><use transform="matrix(0.06790123456790123,0,0,0.06790123456790123,13.580246913580247,0)" xlink:href="#bn"/><use transform="matrix(0.06790123456790123,0,0,0.06790123456790123,27.160493827160494,0)" xlink:href="#bt"/></g><g id="aj"><use transform="matrix(0.06790123456790123,0,0,0.06790123456790123,0,0)" xlink:href="#bx"/><use transform="matrix(0.06790123456790123,0,0,0.06790123456790123,13.580246913580247,0)" xlink:href="#bm"/><use transform="matrix(0.06790123456790123,0,0,0.06790123456790123,27.160493827160494,0)" xlink:href="#bj"/><use transform="matrix(0.06790123456790123,0,0,0.06790123456790123,32.52469135802469,0)" xlink:href="#bI"/></g><g id="ak"><use transform="matrix(0.06790123456790123,0,0,0.06790123456790123,0,0)" xlink:href="#bs"/><use transform="matrix(0.06790123456790123,0,0,0.06790123456790123,13.580246913580247,0)" xlink:href="#bj"/><use transform="matrix(0.06790123456790123,0,0,0.06790123456790123,18.944444444444443,0)" xlink:href="#bo"/><use transform="matrix(0.06790123456790123,0,0,0.06790123456790123,31.166666666666664,0)" xlink:href="#bI"/><use transform="matrix(0.06790123456790123,0,0,0.06790123456790123,37.95679012345679,0)" xlink:href="#bG"/><use transform="matrix(0.06790123456790123,0,0,0.06790123456790123,51.53703703703703,0)" xlink:href="#bm"/><use transform="matrix(0.06790123456790123,0,0,0.06790123456790123,65.11728395061728,0)" xlink:href="#bH"/><use transform="matrix(0.06790123456790123,0,0,0.06790123456790123,77.33950617283949,0)" xlink:href="#bn"/></g><path fill="#fff" d="M186 0v-106H76V0H24v-248h52v99h110v-99h50V0h-50" id="cb"/><path fill="#fff" d="M24 0v-248h195v40H76v63h132v40H76v65h150V0H24" id="cc"/><path fill="#fff" d="M240-174c0 40-23 61-54 70L253 0h-59l-57-94H76V0H24v-248c93 4 217-23 216 74zM76-134c48-2 112 12 112-38 0-48-66-32-112-35v73" id="cd"/><path fill="#fff" d="M24 0v-54h51V0H24" id="ce"/><g id="al"><use transform="matrix(0.09259259259259256,0,0,0.09259259259259256,0,0)" xlink:href="#cb"/><use transform="matrix(0.09259259259259256,0,0,0.09259259259259256,23.981481481481474,0)" xlink:href="#cc"/><use transform="matrix(0.09259259259259256,0,0,0.09259259259259256,46.20370370370369,0)" xlink:href="#cd"/><use transform="matrix(0.09259259259259256,0,0,0.09259259259259256,70.18518518518516,0)" xlink:href="#cc"/><use transform="matrix(0.09259259259259256,0,0,0.09259259259259256,92.40740740740738,0)" xlink:href="#ce"/><use transform="matrix(0.09259259259259256,0,0,0.09259259259259256,101.66666666666663,0)" xlink:href="#bz"/><use transform="matrix(0.09259259259259256,0,0,0.09259259259259256,120.18518518518515,0)" xlink:href="#bB"/><use transform="matrix(0.09259259259259256,0,0,0.09259259259259256,140.4629629629629,0)" xlink:href="#aY"/></g><g id="am"><use transform="matrix(0.09259259259259256,0,0,0.09259259259259256,0,0)" xlink:href="#bc"/><use transform="matrix(0.09259259259259256,0,0,0.09259259259259256,20.27777777777777,0)" xlink:href="#aX"/><use transform="matrix(0.09259259259259256,0,0,0.09259259259259256,29.537037037037027,0)" xlink:href="#bX"/><use transform="matrix(0.09259259259259256,0,0,0.09259259259259256,49.814814814814795,0)" xlink:href="#aX"/><use transform="matrix(0.09259259259259256,0,0,0.09259259259259256,59.07407407407404,0)" xlink:href="#aW"/><use transform="matrix(0.09259259259259256,0,0,0.09259259259259256,70.09259259259257,0)" xlink:href="#bd"/><use transform="matrix(0.09259259259259256,0,0,0.09259259259259256,88.61111111111109,0)" xlink:href="#bA"/></g><g id="an"><use transform="matrix(0.09259259259259256,0,0,0.09259259259259256,0,0)" xlink:href="#aY"/><use transform="matrix(0.09259259259259256,0,0,0.09259259259259256,29.62962962962962,0)" xlink:href="#bd"/><use transform="matrix(0.09259259259259256,0,0,0.09259259259259256,48.14814814814813,0)" xlink:href="#bV"/></g><g id="ao"><use transform="matrix(0.09259259259259256,0,0,0.09259259259259256,0,0)" xlink:href="#bd"/><use transform="matrix(0.09259259259259256,0,0,0.09259259259259256,18.518518518518512,0)" xlink:href="#aW"/><use transform="matrix(0.09259259259259256,0,0,0.09259259259259256,29.537037037037027,0)" xlink:href="#aW"/><use transform="matrix(0.09259259259259256,0,0,0.09259259259259256,40.55555555555554,0)" xlink:href="#bb"/><use transform="matrix(0.09259259259259256,0,0,0.09259259259259256,53.51851851851851,0)" xlink:href="#aX"/><use transform="matrix(0.09259259259259256,0,0,0.09259259259259256,62.77777777777776,0)" xlink:href="#bM"/><use transform="matrix(0.09259259259259256,0,0,0.09259259259259256,83.05555555555553,0)" xlink:href="#bD"/><use transform="matrix(0.09259259259259256,0,0,0.09259259259259256,103.3333333333333,0)" xlink:href="#aW"/><use transform="matrix(0.09259259259259256,0,0,0.09259259259259256,114.3518518518518,0)" xlink:href="#aZ"/><use transform="matrix(0.09259259259259256,0,0,0.09259259259259256,132.87037037037032,0)" xlink:href="#ba"/></g><path fill="#fff" d="M33 0v-248h34V0H33" id="cf"/><g id="ap"><use transform="matrix(0.06790123456790123,0,0,0.06790123456790123,0,0)" xlink:href="#cf"/><use transform="matrix(0.06790123456790123,0,0,0.06790123456790123,6.790123456790123,0)" xlink:href="#bm"/><use transform="matrix(0.06790123456790123,0,0,0.06790123456790123,20.37037037037037,0)" xlink:href="#bw"/><use transform="matrix(0.06790123456790123,0,0,0.06790123456790123,33.95061728395062,0)" xlink:href="#bl"/><use transform="matrix(0.06790123456790123,0,0,0.06790123456790123,47.53086419753087,0)" xlink:href="#bx"/><use transform="matrix(0.06790123456790123,0,0,0.06790123456790123,61.111111111111114,0)" xlink:href="#bo"/><use transform="matrix(0.06790123456790123,0,0,0.06790123456790123,73.33333333333334,0)" xlink:href="#bn"/></g><g id="aq"><use transform="matrix(0.06790123456790123,0,0,0.06790123456790123,0,0)" xlink:href="#bG"/><use transform="matrix(0.06790123456790123,0,0,0.06790123456790123,13.580246913580247,0)" xlink:href="#bs"/><use transform="matrix(0.06790123456790123,0,0,0.06790123456790123,27.160493827160494,0)" xlink:href="#bu"/><use transform="matrix(0.06790123456790123,0,0,0.06790123456790123,39.382716049382715,0)" xlink:href="#bG"/><use transform="matrix(0.06790123456790123,0,0,0.06790123456790123,52.96296296296296,0)" xlink:href="#bm"/><use transform="matrix(0.06790123456790123,0,0,0.06790123456790123,66.54320987654322,0)" xlink:href="#bH"/><use transform="matrix(0.06790123456790123,0,0,0.06790123456790123,78.76543209876544,0)" xlink:href="#bn"/><use transform="matrix(0.06790123456790123,0,0,0.06790123456790123,92.3456790123457,0)" xlink:href="#bs"/></g><g id="ar"><use transform="matrix(0.06790123456790123,0,0,0.06790123456790123,0,0)" xlink:href="#bi"/><use transform="matrix(0.06790123456790123,0,0,0.06790123456790123,20.30246913580247,0)" xlink:href="#bG"/><use transform="matrix(0.06790123456790123,0,0,0.06790123456790123,33.882716049382715,0)" xlink:href="#bP"/></g><g id="as"><use transform="matrix(0.06790123456790123,0,0,0.06790123456790123,0,0)" xlink:href="#bi"/><use transform="matrix(0.06790123456790123,0,0,0.06790123456790123,20.30246913580247,0)" xlink:href="#bG"/><use transform="matrix(0.06790123456790123,0,0,0.06790123456790123,33.882716049382715,0)" xlink:href="#bI"/><use transform="matrix(0.06790123456790123,0,0,0.06790123456790123,40.672839506172835,0)" xlink:href="#bH"/><use transform="matrix(0.06790123456790123,0,0,0.06790123456790123,52.895061728395056,0)" xlink:href="#bw"/><use transform="matrix(0.06790123456790123,0,0,0.06790123456790123,66.4753086419753,0)" xlink:href="#bj"/><use transform="matrix(0.06790123456790123,0,0,0.06790123456790123,71.8395061728395,0)" xlink:href="#bm"/><use transform="matrix(0.06790123456790123,0,0,0.06790123456790123,85.41975308641975,0)" xlink:href="#bK"/></g><g id="at"><use transform="matrix(0.06790123456790123,0,0,0.06790123456790123,0,0)" xlink:href="#bG"/><use transform="matrix(0.06790123456790123,0,0,0.06790123456790123,13.580246913580247,0)" xlink:href="#bk"/><use transform="matrix(0.06790123456790123,0,0,0.06790123456790123,18.944444444444443,0)" xlink:href="#bK"/><use transform="matrix(0.06790123456790123,0,0,0.06790123456790123,32.52469135802469,0)" xlink:href="#bl"/><use transform="matrix(0.06790123456790123,0,0,0.06790123456790123,46.10493827160494,0)" xlink:href="#bt"/><use transform="matrix(0.06790123456790123,0,0,0.06790123456790123,54.18518518518518,0)" xlink:href="#bj"/><use transform="matrix(0.06790123456790123,0,0,0.06790123456790123,59.54938271604938,0)" xlink:href="#bI"/><use transform="matrix(0.06790123456790123,0,0,0.06790123456790123,66.3395061728395,0)" xlink:href="#bw"/><use transform="matrix(0.06790123456790123,0,0,0.06790123456790123,79.91975308641975,0)" xlink:href="#bi"/><use transform="matrix(0.06790123456790123,0,0,0.06790123456790123,100.22222222222221,0)" xlink:href="#bo"/></g><path fill="#fff" d="M30 0v-248h33v221h125V0H30" id="cg"/><g id="au"><use transform="matrix(0.06790123456790123,0,0,0.06790123456790123,0,0)" xlink:href="#cg"/><use transform="matrix(0.06790123456790123,0,0,0.06790123456790123,13.580246913580247,0)" xlink:href="#bj"/><use transform="matrix(0.06790123456790123,0,0,0.06790123456790123,18.944444444444443,0)" xlink:href="#bm"/><use transform="matrix(0.06790123456790123,0,0,0.06790123456790123,32.52469135802469,0)" xlink:href="#bS"/><use transform="matrix(0.06790123456790123,0,0,0.06790123456790123,44.74691358024691,0)" xlink:href="#bj"/><use transform="matrix(0.06790123456790123,0,0,0.06790123456790123,50.11111111111111,0)" xlink:href="#bm"/><use transform="matrix(0.06790123456790123,0,0,0.06790123456790123,63.691358024691354,0)" xlink:href="#bK"/></g><g id="av"><use transform="matrix(0.06790123456790123,0,0,0.06790123456790123,0,0)" xlink:href="#bs"/><use transform="matrix(0.06790123456790123,0,0,0.06790123456790123,13.580246913580247,0)" xlink:href="#bt"/><use transform="matrix(0.06790123456790123,0,0,0.06790123456790123,21.660493827160494,0)" xlink:href="#bj"/><use transform="matrix(0.06790123456790123,0,0,0.06790123456790123,27.02469135802469,0)" xlink:href="#bu"/><use transform="matrix(0.06790123456790123,0,0,0.06790123456790123,39.24691358024691,0)" xlink:href="#bj"/><use transform="matrix(0.06790123456790123,0,0,0.06790123456790123,44.61111111111111,0)" xlink:href="#bm"/><use transform="matrix(0.06790123456790123,0,0,0.06790123456790123,58.191358024691354,0)" xlink:href="#bK"/></g><g id="aw"><use transform="matrix(0.06790123456790123,0,0,0.06790123456790123,0,0)" xlink:href="#bI"/><use transform="matrix(0.06790123456790123,0,0,0.06790123456790123,6.790123456790123,0)" xlink:href="#bj"/><use transform="matrix(0.06790123456790123,0,0,0.06790123456790123,12.15432098765432,0)" xlink:href="#bi"/><use transform="matrix(0.06790123456790123,0,0,0.06790123456790123,32.456790123456784,0)" xlink:href="#bn"/><use transform="matrix(0.06790123456790123,0,0,0.06790123456790123,46.03703703703703,0)" xlink:href="#bo"/><use transform="matrix(0.06790123456790123,0,0,0.06790123456790123,58.25925925925926,0)" xlink:href="#bI"/><use transform="matrix(0.06790123456790123,0,0,0.06790123456790123,65.04938271604938,0)" xlink:href="#bG"/><use transform="matrix(0.06790123456790123,0,0,0.06790123456790123,78.62962962962962,0)" xlink:href="#bi"/><use transform="matrix(0.06790123456790123,0,0,0.06790123456790123,98.93209876543209,0)" xlink:href="#bP"/><use transform="matrix(0.06790123456790123,0,0,0.06790123456790123,112.51234567901233,0)" xlink:href="#bo"/></g><g id="ax"><use transform="matrix(0.06790123456790123,0,0,0.06790123456790123,0,0)" xlink:href="#bI"/><use transform="matrix(0.06790123456790123,0,0,0.06790123456790123,6.790123456790123,0)" xlink:href="#bl"/></g><g id="ay"><use transform="matrix(0.06790123456790123,0,0,0.06790123456790123,0,0)" xlink:href="#bt"/><use transform="matrix(0.06790123456790123,0,0,0.06790123456790123,8.080246913580247,0)" xlink:href="#bl"/><use transform="matrix(0.06790123456790123,0,0,0.06790123456790123,21.660493827160494,0)" xlink:href="#bG"/><use transform="matrix(0.06790123456790123,0,0,0.06790123456790123,35.24074074074074,0)" xlink:href="#bs"/><use transform="matrix(0.06790123456790123,0,0,0.06790123456790123,48.82098765432099,0)" xlink:href="#bT"/><use transform="matrix(0.06790123456790123,0,0,0.06790123456790123,66.4074074074074,0)" xlink:href="#bG"/><use transform="matrix(0.06790123456790123,0,0,0.06790123456790123,79.98765432098764,0)" xlink:href="#bR"/><use transform="matrix(0.06790123456790123,0,0,0.06790123456790123,92.20987654320987,0)" xlink:href="#bo"/></g><g id="az"><use transform="matrix(0.06790123456790123,0,0,0.06790123456790123,0,0)" xlink:href="#bI"/><use transform="matrix(0.06790123456790123,0,0,0.06790123456790123,6.790123456790123,0)" xlink:href="#bw"/><use transform="matrix(0.06790123456790123,0,0,0.06790123456790123,20.37037037037037,0)" xlink:href="#bn"/><use transform="matrix(0.06790123456790123,0,0,0.06790123456790123,33.95061728395062,0)" xlink:href="#bj"/><use transform="matrix(0.06790123456790123,0,0,0.06790123456790123,39.314814814814824,0)" xlink:href="#bt"/></g><g id="aA"><use transform="matrix(0.06790123456790123,0,0,0.06790123456790123,0,0)" xlink:href="#bG"/><use transform="matrix(0.06790123456790123,0,0,0.06790123456790123,13.580246913580247,0)" xlink:href="#bI"/><use transform="matrix(0.06790123456790123,0,0,0.06790123456790123,20.37037037037037,0)" xlink:href="#bI"/><use transform="matrix(0.06790123456790123,0,0,0.06790123456790123,27.160493827160494,0)" xlink:href="#bt"/><use transform="matrix(0.06790123456790123,0,0,0.06790123456790123,35.24074074074074,0)" xlink:href="#bj"/><use transform="matrix(0.06790123456790123,0,0,0.06790123456790123,40.60493827160494,0)" xlink:href="#bO"/><use transform="matrix(0.06790123456790123,0,0,0.06790123456790123,54.18518518518518,0)" xlink:href="#bx"/><use transform="matrix(0.06790123456790123,0,0,0.06790123456790123,67.76543209876543,0)" xlink:href="#bI"/><use transform="matrix(0.06790123456790123,0,0,0.06790123456790123,74.55555555555556,0)" xlink:href="#bn"/><use transform="matrix(0.06790123456790123,0,0,0.06790123456790123,88.1358024691358,0)" xlink:href="#bo"/></g><path fill="#fff" d="M238-95c0 69-44 99-111 99C63 4 22-25 22-93v-155h51v151c-1 38 19 59 55 60 90 1 49-130 58-211h52v153" id="ch"/><g id="aB"><use transform="matrix(0.09259259259259256,0,0,0.09259259259259256,0,0)" xlink:href="#ch"/><use transform="matrix(0.09259259259259256,0,0,0.09259259259259256,23.981481481481474,0)" xlink:href="#ba"/><use transform="matrix(0.09259259259259256,0,0,0.09259259259259256,42.499999999999986,0)" xlink:href="#aZ"/><use transform="matrix(0.09259259259259256,0,0,0.09259259259259256,61.0185185185185,0)" xlink:href="#bb"/></g><g id="aC"><use transform="matrix(0.09259259259259256,0,0,0.09259259259259256,0,0)" xlink:href="#aX"/><use transform="matrix(0.09259259259259256,0,0,0.09259259259259256,9.259259259259256,0)" xlink:href="#bC"/><use transform="matrix(0.09259259259259256,0,0,0.09259259259259256,29.537037037037027,0)" xlink:href="#aW"/><use transform="matrix(0.09259259259259256,0,0,0.09259259259259256,40.55555555555554,0)" xlink:href="#aZ"/><use transform="matrix(0.09259259259259256,0,0,0.09259259259259256,59.074074074074055,0)" xlink:href="#bb"/><use transform="matrix(0.09259259259259256,0,0,0.09259259259259256,72.03703703703701,0)" xlink:href="#bW"/><use transform="matrix(0.09259259259259256,0,0,0.09259259259259256,83.05555555555553,0)" xlink:href="#bd"/><use transform="matrix(0.09259259259259256,0,0,0.09259259259259256,101.57407407407403,0)" xlink:href="#bz"/><use transform="matrix(0.09259259259259256,0,0,0.09259259259259256,120.09259259259255,0)" xlink:href="#aZ"/></g><g id="aD"><use transform="matrix(0.06790123456790123,0,0,0.06790123456790123,0,0)" xlink:href="#bY"/><use transform="matrix(0.06790123456790123,0,0,0.06790123456790123,16.296296296296294,0)" xlink:href="#bk"/><use transform="matrix(0.06790123456790123,0,0,0.06790123456790123,21.66049382716049,0)" xlink:href="#bk"/><use transform="matrix(0.06790123456790123,0,0,0.06790123456790123,27.024691358024686,0)" xlink:href="#bl"/><use transform="matrix(0.06790123456790123,0,0,0.06790123456790123,40.60493827160494,0)" xlink:href="#bT"/><use transform="matrix(0.06790123456790123,0,0,0.06790123456790123,58.191358024691354,0)" xlink:href="#bo"/></g><g id="aE"><use transform="matrix(0.06790123456790123,0,0,0.06790123456790123,0,0)" xlink:href="#bx"/><use transform="matrix(0.06790123456790123,0,0,0.06790123456790123,13.580246913580247,0)" xlink:href="#bo"/><use transform="matrix(0.06790123456790123,0,0,0.06790123456790123,25.80246913580247,0)" xlink:href="#bn"/><use transform="matrix(0.06790123456790123,0,0,0.06790123456790123,39.382716049382715,0)" xlink:href="#bt"/></g><g id="aF"><use transform="matrix(0.06790123456790123,0,0,0.06790123456790123,0,0)" xlink:href="#bo"/><use transform="matrix(0.06790123456790123,0,0,0.06790123456790123,12.222222222222221,0)" xlink:href="#bx"/><use transform="matrix(0.06790123456790123,0,0,0.06790123456790123,25.80246913580247,0)" xlink:href="#bO"/><use transform="matrix(0.06790123456790123,0,0,0.06790123456790123,39.382716049382715,0)" xlink:href="#bo"/><use transform="matrix(0.06790123456790123,0,0,0.06790123456790123,51.60493827160494,0)" xlink:href="#bn"/><use transform="matrix(0.06790123456790123,0,0,0.06790123456790123,65.18518518518519,0)" xlink:href="#bI"/><use transform="matrix(0.06790123456790123,0,0,0.06790123456790123,71.97530864197532,0)" xlink:href="#bq"/></g><g id="aG"><use transform="matrix(0.06790123456790123,0,0,0.06790123456790123,0,0)" xlink:href="#bo"/><use transform="matrix(0.06790123456790123,0,0,0.06790123456790123,12.222222222222221,0)" xlink:href="#bn"/><use transform="matrix(0.06790123456790123,0,0,0.06790123456790123,25.80246913580247,0)" xlink:href="#bk"/><use transform="matrix(0.06790123456790123,0,0,0.06790123456790123,31.166666666666664,0)" xlink:href="#bn"/><use transform="matrix(0.06790123456790123,0,0,0.06790123456790123,44.74691358024691,0)" xlink:href="#bH"/><use transform="matrix(0.06790123456790123,0,0,0.06790123456790123,56.96913580246913,0)" xlink:href="#bI"/><use transform="matrix(0.06790123456790123,0,0,0.06790123456790123,63.75925925925925,0)" xlink:href="#bq"/></g><g id="aH"><use transform="matrix(0.06790123456790123,0,0,0.06790123456790123,0,0)" xlink:href="#bG"/><use transform="matrix(0.06790123456790123,0,0,0.06790123456790123,13.580246913580247,0)" xlink:href="#bm"/><use transform="matrix(0.06790123456790123,0,0,0.06790123456790123,27.160493827160494,0)" xlink:href="#bs"/></g><g id="aI"><use transform="matrix(0.06790123456790123,0,0,0.06790123456790123,0,0)" xlink:href="#bu"/><use transform="matrix(0.06790123456790123,0,0,0.06790123456790123,12.222222222222221,0)" xlink:href="#bj"/><use transform="matrix(0.06790123456790123,0,0,0.06790123456790123,17.586419753086417,0)" xlink:href="#bo"/><use transform="matrix(0.06790123456790123,0,0,0.06790123456790123,29.80864197530864,0)" xlink:href="#bx"/><use transform="matrix(0.06790123456790123,0,0,0.06790123456790123,43.388888888888886,0)" xlink:href="#bG"/><use transform="matrix(0.06790123456790123,0,0,0.06790123456790123,56.96913580246913,0)" xlink:href="#bk"/><use transform="matrix(0.06790123456790123,0,0,0.06790123456790123,62.33333333333333,0)" xlink:href="#bj"/><use transform="matrix(0.06790123456790123,0,0,0.06790123456790123,67.69753086419753,0)" xlink:href="#bJ"/><use transform="matrix(0.06790123456790123,0,0,0.06790123456790123,79.91975308641975,0)" xlink:href="#bn"/></g><g id="aK"><use transform="matrix(0.06790123456790123,0,0,0.06790123456790123,0,0)" xlink:href="#bs"/><use transform="matrix(0.06790123456790123,0,0,0.06790123456790123,13.580246913580247,0)" xlink:href="#bj"/><use transform="matrix(0.06790123456790123,0,0,0.06790123456790123,18.944444444444443,0)" xlink:href="#bZ"/><use transform="matrix(0.06790123456790123,0,0,0.06790123456790123,25.25925925925926,0)" xlink:href="#bZ"/><use transform="matrix(0.06790123456790123,0,0,0.06790123456790123,32.04938271604938,0)" xlink:href="#bn"/><use transform="matrix(0.06790123456790123,0,0,0.06790123456790123,45.629629629629626,0)" xlink:href="#bt"/><use transform="matrix(0.06790123456790123,0,0,0.06790123456790123,53.70987654320987,0)" xlink:href="#bn"/><use transform="matrix(0.06790123456790123,0,0,0.06790123456790123,67.29012345679013,0)" xlink:href="#bm"/><use transform="matrix(0.06790123456790123,0,0,0.06790123456790123,80.87037037037038,0)" xlink:href="#bI"/></g><g id="aL"><use transform="matrix(0.06790123456790123,0,0,0.06790123456790123,0,0)" xlink:href="#bk"/><use transform="matrix(0.06790123456790123,0,0,0.06790123456790123,5.364197530864197,0)" xlink:href="#bn"/><use transform="matrix(0.06790123456790123,0,0,0.06790123456790123,18.944444444444443,0)" xlink:href="#bu"/><use transform="matrix(0.06790123456790123,0,0,0.06790123456790123,31.166666666666664,0)" xlink:href="#bn"/><use transform="matrix(0.06790123456790123,0,0,0.06790123456790123,44.74691358024691,0)" xlink:href="#bk"/><use transform="matrix(0.06790123456790123,0,0,0.06790123456790123,50.11111111111111,0)" xlink:href="#bo"/></g><g id="aM"><use transform="matrix(0.06790123456790123,0,0,0.06790123456790123,0,0)" xlink:href="#bl"/><use transform="matrix(0.06790123456790123,0,0,0.06790123456790123,13.580246913580247,0)" xlink:href="#bZ"/></g><g id="aN"><use transform="matrix(0.06790123456790123,0,0,0.06790123456790123,0,0)" xlink:href="#bo"/><use transform="matrix(0.06790123456790123,0,0,0.06790123456790123,12.222222222222221,0)" xlink:href="#bx"/><use transform="matrix(0.06790123456790123,0,0,0.06790123456790123,25.80246913580247,0)" xlink:href="#bi"/><use transform="matrix(0.06790123456790123,0,0,0.06790123456790123,46.10493827160494,0)" xlink:href="#bi"/><use transform="matrix(0.06790123456790123,0,0,0.06790123456790123,66.4074074074074,0)" xlink:href="#bG"/><use transform="matrix(0.06790123456790123,0,0,0.06790123456790123,79.98765432098764,0)" xlink:href="#bt"/><use transform="matrix(0.06790123456790123,0,0,0.06790123456790123,88.0679012345679,0)" xlink:href="#bj"/><use transform="matrix(0.06790123456790123,0,0,0.06790123456790123,93.43209876543212,0)" xlink:href="#bJ"/><use transform="matrix(0.06790123456790123,0,0,0.06790123456790123,105.65432098765433,0)" xlink:href="#bG"/><use transform="matrix(0.06790123456790123,0,0,0.06790123456790123,119.23456790123457,0)" xlink:href="#bI"/><use transform="matrix(0.06790123456790123,0,0,0.06790123456790123,126.02469135802471,0)" xlink:href="#bj"/><use transform="matrix(0.06790123456790123,0,0,0.06790123456790123,131.3888888888889,0)" xlink:href="#bl"/><use transform="matrix(0.06790123456790123,0,0,0.06790123456790123,144.96913580246917,0)" xlink:href="#bm"/></g><path fill="#fff" d="M30-248c118-7 216 8 213 122C240-48 200 0 122 0H30v-248zM63-27c89 8 146-16 146-99s-60-101-146-95v194" id="ci"/><g id="aO"><use transform="matrix(0.0925925925925926,0,0,0.0925925925925926,0,0)" xlink:href="#ci"/><use transform="matrix(0.0925925925925926,0,0,0.0925925925925926,23.981481481481485,0)" xlink:href="#bG"/><use transform="matrix(0.0925925925925926,0,0,0.0925925925925926,42.5,0)" xlink:href="#bI"/><use transform="matrix(0.0925925925925926,0,0,0.0925925925925926,51.75925925925927,0)" xlink:href="#bG"/></g><path fill="#fff" d="M185-189c-5-48-123-54-124 2 14 75 158 14 163 119 3 78-121 87-175 55-17-10-28-26-33-46l33-7c5 56 141 63 141-1 0-78-155-14-162-118-5-82 145-84 179-34 5 7 8 16 11 25" id="cj"/><g id="aP"><use transform="matrix(0.0925925925925926,0,0,0.0925925925925926,0,0)" xlink:href="#cj"/><use transform="matrix(0.0925925925925926,0,0,0.0925925925925926,22.222222222222225,0)" xlink:href="#bI"/><use transform="matrix(0.0925925925925926,0,0,0.0925925925925926,31.481481481481485,0)" xlink:href="#bl"/><use transform="matrix(0.0925925925925926,0,0,0.0925925925925926,50.00000000000001,0)" xlink:href="#bt"/><use transform="matrix(0.0925925925925926,0,0,0.0925925925925926,61.018518518518526,0)" xlink:href="#bn"/></g><path fill="#fff" d="M30-248c87 1 191-15 191 75 0 78-77 80-158 76V0H30v-248zm33 125c57 0 124 11 124-50 0-59-68-47-124-48v98" id="ck"/><g id="aQ"><use transform="matrix(0.0925925925925926,0,0,0.0925925925925926,0,0)" xlink:href="#ck"/><use transform="matrix(0.0925925925925926,0,0,0.0925925925925926,22.222222222222225,0)" xlink:href="#bt"/><use transform="matrix(0.0925925925925926,0,0,0.0925925925925926,33.24074074074075,0)" xlink:href="#bl"/><use transform="matrix(0.0925925925925926,0,0,0.0925925925925926,51.75925925925927,0)" xlink:href="#bH"/><use transform="matrix(0.0925925925925926,0,0,0.0925925925925926,68.42592592592594,0)" xlink:href="#bn"/><use transform="matrix(0.0925925925925926,0,0,0.0925925925925926,86.94444444444446,0)" xlink:href="#bo"/><use transform="matrix(0.0925925925925926,0,0,0.0925925925925926,103.61111111111111,0)" xlink:href="#bo"/></g><g id="aR"><use transform="matrix(0.0925925925925926,0,0,0.0925925925925926,0,0)" xlink:href="#cf"/><use transform="matrix(0.0925925925925926,0,0,0.0925925925925926,9.25925925925926,0)" xlink:href="#bm"/><use transform="matrix(0.0925925925925926,0,0,0.0925925925925926,27.777777777777782,0)" xlink:href="#bI"/><use transform="matrix(0.0925925925925926,0,0,0.0925925925925926,37.03703703703704,0)" xlink:href="#bn"/><use transform="matrix(0.0925925925925926,0,0,0.0925925925925926,55.555555555555564,0)" xlink:href="#bt"/><use transform="matrix(0.0925925925925926,0,0,0.0925925925925926,66.57407407407408,0)" xlink:href="#bZ"/><use transform="matrix(0.0925925925925926,0,0,0.0925925925925926,75.83333333333334,0)" xlink:href="#bG"/><use transform="matrix(0.0925925925925926,0,0,0.0925925925925926,94.35185185185186,0)" xlink:href="#bH"/><use transform="matrix(0.0925925925925926,0,0,0.0925925925925926,111.01851851851853,0)" xlink:href="#bn"/></g><path d="M30 0v-248h33v221h125V0H30" id="cl"/><path d="M100-194c63 0 86 42 84 106H49c0 40 14 67 53 68 26 1 43-12 49-29l28 8c-11 28-37 45-77 45C44 4 14-33 15-96c1-61 26-98 85-98zm52 81c6-60-76-77-97-28-3 7-6 17-6 28h103" id="cm"/><path d="M177-190C167-65 218 103 67 71c-23-6-38-20-44-43l32-5c15 47 100 32 89-28v-30C133-14 115 1 83 1 29 1 15-40 15-95c0-56 16-97 71-98 29-1 48 16 59 35 1-10 0-23 2-32h30zM94-22c36 0 50-32 50-73 0-42-14-75-50-75-39 0-46 34-46 75s6 73 46 73" id="cn"/><path d="M117-194c89-4 53 116 60 194h-32v-121c0-31-8-49-39-48C34-167 62-67 57 0H25l-1-190h30c1 10-1 24 2 32 11-22 29-35 61-36" id="co"/><path d="M85-194c31 0 48 13 60 33l-1-100h32l1 261h-30c-2-10 0-23-3-31C134-8 116 4 85 4 32 4 16-35 15-94c0-66 23-100 70-100zm9 24c-40 0-46 34-46 75 0 40 6 74 45 74 42 0 51-32 51-76 0-42-9-74-50-73" id="cp"/><g id="aS"><use transform="matrix(0.0925925925925926,0,0,0.0925925925925926,0,0)" xlink:href="#cl"/><use transform="matrix(0.0925925925925926,0,0,0.0925925925925926,18.51851851851852,0)" xlink:href="#cm"/><use transform="matrix(0.0925925925925926,0,0,0.0925925925925926,37.03703703703704,0)" xlink:href="#cn"/><use transform="matrix(0.0925925925925926,0,0,0.0925925925925926,55.555555555555564,0)" xlink:href="#cm"/><use transform="matrix(0.0925925925925926,0,0,0.0925925925925926,74.07407407407408,0)" xlink:href="#co"/><use transform="matrix(0.0925925925925926,0,0,0.0925925925925926,92.5925925925926,0)" xlink:href="#cp"/></g></defs></g></svg>